<?xml version="1.0" standalone="no"?>
<!DOCTYPE svg PUBLIC "-//W3C//DTD SVG 20010904//EN"
 "http://www.w3.org/TR/2001/REC-SVG-20010904/DTD/svg10.dtd">
<svg version="1.0" xmlns="http://www.w3.org/2000/svg"
 width="3240.000000pt" height="5760.000000pt" viewBox="0 0 3240.000000 5760.000000"
 preserveAspectRatio="xMidYMid meet">

<g transform="translate(0.000000,5760.000000) scale(0.100000,-0.100000)"
fill="#000000" stroke="none">
<path d="M15415 57571 l-40 -6 -5 -728 -5 -728 -56 78 c-31 43 -210 290 -399
548 -189 259 -386 529 -438 600 -52 72 -97 133 -101 137 -3 4 -53 0 -111 -7
-58 -8 -108 -15 -112 -15 -5 0 -9 -272 -10 -605 l-3 -605 -300 412 c-391 536
-475 651 -485 661 -8 9 -120 -10 -120 -19 0 -5 49 -72 546 -754 127 -173 233
-320 236 -325 5 -7 -14 -10 -56 -7 -37 2 -72 -1 -85 -8 -18 -9 -30 -7 -67 11
-35 17 -58 20 -104 17 -53 -4 -60 -2 -68 18 -29 61 -142 154 -189 154 -19 0
-23 5 -23 28 0 41 -47 129 -85 158 -70 53 -140 52 -204 -2 l-40 -34 -78 22
c-50 15 -105 23 -153 23 -60 0 -81 4 -105 21 -16 12 -47 27 -67 33 -21 7 -40
17 -43 22 -4 5 -30 9 -59 9 -47 0 -57 -4 -88 -34 -22 -21 -38 -48 -42 -70 l-7
-36 -58 0 c-44 0 -70 6 -105 26 -41 23 -56 26 -116 22 -91 -5 -143 -39 -184
-120 -16 -32 -34 -58 -42 -58 -7 0 -30 11 -50 25 -39 27 -40 27 -123 27 -43 0
-61 -5 -94 -30 -46 -33 -76 -83 -84 -139 l-5 -38 -84 4 c-75 3 -91 0 -139 -23
-69 -34 -129 -119 -140 -196 -5 -34 -13 -53 -24 -57 -50 -17 -129 -57 -150
-76 -13 -12 -37 -42 -52 -66 -25 -39 -29 -55 -29 -118 l0 -73 -46 -28 c-68
-43 -142 -155 -185 -280 -24 -70 -27 -211 -5 -271 9 -24 16 -45 16 -46 0 -1
-13 -8 -29 -15 -16 -6 -40 -23 -53 -37 -21 -22 -23 -33 -23 -126 0 -95 2 -105
29 -147 15 -25 46 -58 67 -73 35 -25 39 -33 39 -72 0 -36 10 -57 58 -129 31
-47 65 -88 74 -91 18 -6 34 -42 24 -52 -3 -4 -16 3 -29 15 -12 11 -41 24 -65
28 -36 6 -48 2 -83 -20 -51 -34 -76 -87 -90 -195 -10 -76 -10 -83 14 -133 37
-80 59 -191 57 -288 -6 -250 -7 -243 19 -279 27 -38 121 -87 186 -96 l41 -7
28 -110 c43 -169 124 -402 179 -518 39 -80 111 -204 135 -229 12 -13 22 -32
22 -42 0 -11 4 -19 9 -19 5 0 38 -39 73 -87 36 -49 105 -131 156 -184 93 -99
110 -126 156 -239 30 -72 69 -254 86 -402 6 -54 16 -112 21 -130 5 -18 9 -77
9 -131 0 -116 -22 -99 215 -161 319 -83 660 -176 686 -187 19 -7 33 -7 45 0
11 5 44 17 74 25 162 44 494 133 630 168 85 22 162 47 170 54 12 12 12 24 1
86 -7 40 -13 82 -12 93 0 11 -8 52 -18 90 -25 91 -38 173 -51 319 -19 215 -19
212 79 356 l85 125 1 90 c0 78 3 94 23 123 13 17 24 32 26 32 1 0 1 -17 -1
-37 -2 -21 -1 -58 3 -82 l6 -44 61 93 62 93 1 89 c1 75 -1 86 -13 76 -8 -6 3
24 23 68 21 43 56 125 78 181 23 57 44 103 47 103 3 0 16 -14 28 -31 l23 -31
-63 -92 -64 -91 -5 -93 c-3 -50 -2 -92 1 -92 3 0 41 52 85 116 47 69 80 110
82 101 2 -9 -4 -64 -12 -122 -14 -89 -16 -232 -16 -925 l0 -820 84 0 84 0 1
155 c1 85 4 162 7 170 4 8 15 15 25 15 17 0 19 -8 19 -77 0 -77 1 -79 47 -147
l48 -70 6 37 c7 44 13 51 34 44 11 -5 15 -22 15 -67 l0 -60 61 0 c48 0 59 3
52 13 -18 22 -249 342 -256 354 -6 9 146 246 189 294 20 22 18 26 -23 46 -21
9 -42 23 -48 30 -7 9 -32 -20 -92 -109 l-83 -122 0 887 0 888 35 30 c51 45 61
94 40 186 -13 54 -15 90 -10 145 4 40 10 75 14 78 15 12 105 337 122 443 5 33
12 63 15 68 3 6 3 48 -1 94 -7 80 -9 87 -47 130 -26 30 -48 45 -64 45 -31 0
-30 6 6 37 30 25 70 90 70 113 0 6 14 31 30 55 17 24 30 48 30 53 0 5 -16 17
-35 26 -23 11 -35 24 -35 37 0 21 91 119 111 119 6 0 30 18 53 40 68 67 73 71
88 65 11 -5 38 25 94 107 l79 113 2 89 c1 50 -1 94 -3 98 -5 8 -46 -49 -336
-474 -55 -82 -103 -148 -107 -148 -3 0 -14 15 -25 33 -14 24 -18 55 -20 127
-1 90 -3 97 -33 140 -18 25 -36 60 -39 78 -4 18 -10 35 -15 37 -4 3 -5 28 -2
56 3 28 1 66 -6 87 -8 26 -13 264 -16 832 -3 437 -4 804 -4 815 9 428 10 461
23 474 23 22 36 3 36 -53 0 -47 5 -59 46 -114 46 -62 64 -75 64 -46 0 9 7 14
18 12 13 -2 18 -15 20 -56 3 -49 10 -62 98 -182 170 -235 277 -381 497 -682
119 -164 217 -300 217 -304 0 -3 -41 -67 -90 -140 l-91 -134 3 -96 3 -97 110
162 110 163 3 -722 c1 -397 1 -1044 0 -1438 l-3 -717 -51 70 c-28 39 -144 198
-259 355 -114 157 -273 374 -353 483 -79 109 -146 196 -149 193 -3 -3 -5 -42
-4 -88 1 -79 3 -86 39 -138 28 -41 43 -55 62 -55 22 0 26 -5 30 -40 4 -32 29
-73 111 -185 258 -353 487 -667 499 -686 11 -18 4 -33 -69 -138 l-82 -118 3
-98 3 -98 113 166 112 166 0 -921 c0 -728 3 -922 13 -925 6 -3 45 -1 85 5 l72
10 0 101 c1 86 3 98 14 84 7 -10 15 -18 18 -18 2 0 5 29 5 64 0 35 4 70 9 78
4 7 9 20 9 28 1 16 43 79 319 480 97 140 268 392 380 560 112 168 235 349 272
403 63 91 67 100 49 109 -18 11 -17 12 7 32 l25 21 -173 235 c-95 129 -173
238 -174 242 0 7 -32 51 -285 398 -54 74 -116 155 -137 179 -21 25 -51 66 -65
93 -14 26 -28 46 -31 43 -3 -2 -5 -44 -5 -93 1 -86 2 -90 38 -141 30 -41 40
-49 51 -40 22 18 42 -5 42 -50 1 -34 21 -67 167 -267 92 -126 183 -249 204
-274 20 -25 48 -61 62 -80 14 -19 65 -87 112 -152 l86 -116 -102 -146 c-56
-80 -141 -201 -188 -268 -47 -68 -179 -260 -294 -428 -115 -168 -255 -372
-312 -454 l-103 -149 0 1399 c1 1165 3 1396 14 1382 7 -10 16 -18 18 -18 3 0
5 30 4 68 -1 37 2 75 6 84 5 9 4 20 -2 23 -7 4 -5 11 3 19 7 7 33 44 56 82 24
38 56 87 71 109 15 23 27 56 29 80 2 41 18 60 37 44 8 -6 25 12 56 59 42 62
45 72 39 108 -4 21 -7 51 -6 66 2 29 22 61 35 53 4 -3 10 9 12 25 3 17 2 30
-2 30 -4 0 -31 -36 -61 -80 -39 -59 -53 -88 -51 -108 3 -32 -19 -58 -42 -49
-8 3 -17 0 -19 -6 -3 -7 -41 -61 -86 -121 -44 -60 -87 -119 -95 -130 -13 -18
-15 150 -15 1404 0 1187 2 1422 13 1408 21 -28 26 -22 26 31 0 48 14 68 36 53
5 -4 10 -46 12 -95 2 -86 3 -88 48 -150 25 -34 48 -64 51 -67 2 -3 3 14 0 38
-5 53 13 83 37 63 12 -10 16 -30 15 -85 -1 -39 -1 -76 0 -82 1 -10 70 -106
266 -369 44 -59 178 -240 297 -402 l217 -295 -41 -62 c-23 -33 -90 -131 -148
-216 -59 -85 -111 -165 -115 -178 -4 -13 -20 -38 -35 -56 l-29 -33 51 -12 c28
-6 52 -10 53 -9 1 2 27 39 57 83 30 44 110 161 178 259 115 166 122 180 105
192 -17 13 -17 15 8 34 l26 20 -222 303 c-121 166 -249 343 -282 392 -34 50
-144 203 -245 340 -101 138 -216 296 -257 352 -41 56 -78 105 -84 109 -5 3
-16 0 -24 -6 -13 -11 -15 -4 -15 49 l0 61 -42 -1 c-24 -1 -61 -5 -83 -8z
m-1245 -4381 c6 -11 10 -53 8 -93 l-3 -72 -28 37 c-28 36 -28 38 -16 93 13 59
22 67 39 35z m-986 -266 c6 -15 -6 -133 -35 -368 -19 -155 -58 -236 -155 -326
-74 -69 -133 -106 -210 -132 -61 -20 -88 -23 -229 -23 -141 0 -165 2 -205 21
-65 30 -103 66 -158 149 -53 79 -142 290 -142 337 0 31 16 68 34 81 6 4 79 5
161 2 138 -6 160 -4 275 20 137 29 250 74 468 186 135 70 185 83 196 53z"/>
<path d="M14872 57450 c0 -14 2 -19 5 -12 2 6 2 18 0 25 -3 6 -5 1 -5 -13z"/>
<path d="M15051 57454 c0 -11 3 -14 6 -6 3 7 2 16 -1 19 -3 4 -6 -2 -5 -13z"/>
<path d="M20305 57049 c8 -13 278 -383 495 -679 220 -301 260 -357 260 -365 0
-5 -18 -35 -40 -66 l-40 -57 0 -103 0 -103 36 57 c19 31 37 57 40 57 2 0 4
-370 4 -822 l0 -821 -122 9 c-68 5 -253 9 -412 9 l-288 0 -80 110 c-43 61 -85
111 -91 113 -7 1 -27 -10 -45 -25 l-33 -28 60 -83 c34 -45 61 -86 61 -91 0 -4
-35 -6 -77 -3 -43 2 -181 5 -308 6 -250 1 -288 -5 -340 -51 -30 -26 -30 -27
-33 -145 l-4 -118 -34 0 c-45 0 -132 -49 -181 -103 -102 -109 -240 -230 -339
-297 -210 -141 -247 -173 -553 -474 -290 -286 -390 -409 -376 -466 4 -14 13
-32 21 -41 13 -15 4 -17 -102 -22 -138 -7 -156 -15 -196 -99 -20 -42 -28 -75
-31 -137 -6 -126 8 -352 32 -501 15 -97 20 -172 19 -267 -2 -93 1 -136 10
-145 19 -19 14 -28 -13 -28 -35 0 -102 -35 -119 -63 -7 -12 -19 -44 -25 -72
-16 -73 -17 -359 -3 -517 13 -131 11 -266 -3 -370 -6 -44 -5 -50 23 -78 21
-20 40 -30 61 -30 34 0 37 -6 20 -44 -18 -38 4 -129 62 -265 80 -186 182 -347
273 -433 l61 -58 -68 35 c-59 30 -78 35 -137 35 -89 0 -158 -29 -223 -94 -130
-131 -184 -277 -175 -474 6 -112 22 -164 75 -242 28 -41 79 -195 99 -298 18
-94 18 -301 0 -389 -8 -37 -17 -98 -21 -134 -6 -62 -4 -68 32 -137 21 -39 42
-72 48 -73 5 -1 33 45 61 102 54 105 83 138 120 139 38 0 45 -22 48 -157 5
-163 8 -173 54 -173 28 0 43 9 84 50 27 28 56 50 64 50 7 0 23 9 34 20 14 14
22 17 24 8 4 -14 22 -124 37 -228 5 -36 13 -74 18 -85 5 -11 18 -56 29 -100
28 -117 77 -291 101 -360 12 -33 39 -114 60 -180 58 -180 118 -342 156 -420
18 -38 59 -122 89 -185 153 -315 436 -711 676 -943 l132 -128 18 -92 c10 -51
25 -148 35 -217 9 -69 34 -240 55 -380 21 -140 46 -316 55 -390 9 -74 23 -175
31 -223 12 -71 13 -109 4 -190 -13 -130 -30 -256 -37 -284 -4 -18 -1 -23 15
-23 42 0 52 -25 52 -126 0 -167 76 -350 182 -434 104 -83 304 -280 359 -353
98 -130 202 -371 240 -555 7 -34 17 -61 21 -60 17 6 226 283 338 448 65 96
142 203 172 236 123 142 361 395 462 494 178 170 253 251 306 327 28 40 48 78
45 84 -4 5 -2 22 3 37 21 55 23 82 7 82 -21 0 -19 27 6 61 14 20 22 48 24 88
1 32 5 64 9 70 4 6 -2 21 -13 33 -28 29 -28 68 -1 68 14 0 20 7 20 23 1 12 3
47 6 78 6 51 4 58 -14 63 -24 8 -19 40 12 74 11 13 22 35 23 50 1 15 4 43 6
62 4 24 -1 42 -14 59 -22 28 -25 61 -5 61 19 0 86 -79 86 -101 0 -9 78 -124
174 -255 l174 -239 -26 -35 c-24 -31 -27 -45 -30 -137 -2 -57 -2 -103 0 -103
3 0 29 36 59 80 l54 81 5 -318 c5 -313 5 -318 26 -321 19 -3 45 -24 98 -81 48
-51 46 -93 46 1081 l0 1103 53 -77 c28 -43 54 -77 57 -78 3 0 5 42 5 93 0 91
0 93 -38 145 -24 32 -35 56 -31 64 5 7 91 135 193 283 450 657 508 743 514
756 3 8 82 124 175 259 153 220 168 246 154 258 -16 12 -15 15 6 32 27 22 29
15 -52 127 l-60 82 -37 -32 c-21 -18 -38 -35 -38 -38 -1 -3 22 -36 49 -72 l51
-67 -126 -182 c-69 -101 -190 -275 -268 -388 -79 -113 -217 -313 -307 -445
-90 -132 -194 -285 -232 -339 l-68 -99 0 188 0 188 69 106 c156 242 309 549
424 851 34 88 51 143 92 295 20 72 48 160 62 197 22 58 28 65 38 51 14 -19 48
-13 84 16 l25 19 -47 62 c-47 63 -52 90 -27 140 5 8 16 65 26 125 10 61 19
112 21 114 1 2 12 -8 23 -22 24 -30 111 -75 155 -79 l30 -3 6 105 c3 58 9 113
13 122 17 39 82 29 90 -15 2 -12 9 -58 16 -102 6 -44 16 -84 20 -89 25 -26
140 57 167 122 9 21 16 92 19 195 7 193 13 222 61 279 158 189 209 286 295
563 35 110 41 147 45 243 7 165 -16 235 -113 350 -129 152 -230 201 -385 188
-67 -5 -95 -14 -162 -48 -45 -22 -77 -34 -71 -27 70 92 107 144 131 185 60
101 144 298 174 406 17 62 49 154 70 204 36 85 39 98 39 186 0 83 -3 99 -22
124 -32 42 -138 165 -170 197 -33 32 -34 37 -9 37 10 0 29 8 41 18 21 17 24
32 32 138 5 74 23 186 47 294 48 211 61 309 61 456 0 107 -1 112 -30 152 -22
31 -50 51 -122 86 -72 34 -203 110 -226 131 -2 2 8 14 22 28 14 15 26 33 26
41 0 8 -22 41 -48 73 -52 62 -202 277 -202 288 0 4 63 99 140 211 77 112 140
208 140 213 0 5 -8 12 -17 15 -15 6 -13 10 10 29 l28 22 -173 238 c-95 131
-234 322 -308 425 -193 269 -284 392 -291 392 -3 0 -6 -39 -7 -86 l-1 -85 90
-124 c70 -96 97 -126 123 -135 61 -20 126 -105 126 -165 0 -33 9 -53 43 -97
23 -32 97 -131 164 -222 l121 -164 -101 -149 c-56 -81 -116 -167 -134 -191
l-31 -42 -32 31 c-17 17 -57 66 -89 108 -32 42 -85 103 -117 136 -32 33 -76
80 -97 105 -47 52 -161 148 -197 164 -14 6 -40 21 -59 33 -22 15 -49 23 -77
23 l-44 0 0 557 0 557 60 -81 c33 -45 75 -93 94 -108 21 -16 37 -39 42 -57 7
-35 60 -113 67 -101 8 16 -2 139 -15 178 -13 41 -67 124 -80 125 -5 0 -8 -13
-8 -30 0 -23 -4 -30 -20 -30 -20 0 -33 27 -29 65 6 58 -3 85 -51 148 -27 36
-46 67 -41 69 5 2 64 85 131 186 83 126 118 187 112 195 -6 7 -9 40 -8 75 0
34 -1 62 -4 62 -3 0 -22 -27 -43 -59 -20 -32 -76 -111 -122 -176 l-85 -118 0
895 0 894 -77 35 c-42 19 -80 36 -85 37 -4 2 -8 -62 -8 -143 l0 -147 -136 189
c-74 103 -145 198 -157 210 -20 20 -197 98 -197 86 0 -4 211 -295 376 -519
l53 -71 -29 -43 c-27 -40 -29 -51 -29 -137 0 -51 2 -93 5 -93 2 0 28 37 59 82
l55 83 0 -1309 0 -1310 -92 90 c-51 49 -118 121 -149 159 -68 82 -257 269
-349 345 -123 101 -221 195 -261 250 l-39 55 0 -38 c0 -24 -5 -40 -15 -43 -30
-12 -41 12 -38 82 3 66 3 67 -47 134 l-50 68 144 208 c130 189 143 210 130
228 -9 14 -10 24 -3 38 13 25 67 74 105 97 19 12 83 96 172 227 l142 208 -1
92 c-1 52 -5 92 -8 90 -3 -2 -161 -231 -351 -508 l-345 -504 -3 1126 -2 1126
-73 23 c-39 13 -78 26 -84 28 -10 4 -13 -64 -15 -305 l-3 -310 -140 192 c-76
105 -206 283 -289 396 -82 113 -150 206 -151 208 -1 1 -32 11 -68 21 -36 11
-75 22 -87 26 -17 5 -21 4 -15 -6z m965 -2919 c26 -34 28 -40 9 -22 -14 12
-31 22 -37 22 -7 0 -12 12 -12 27 0 14 1 24 3 22 2 -2 18 -24 37 -49z m50 -70
c6 -11 7 -20 2 -20 -6 0 -12 9 -15 20 -3 11 -3 20 -1 20 2 0 8 -9 14 -20z
m-1608 -7524 c80 -65 177 -126 323 -200 72 -37 157 -83 190 -101 113 -65 251
-101 484 -130 112 -14 145 -14 335 0 224 16 385 39 426 60 14 7 35 16 48 19
19 6 22 4 22 -18 0 -59 -98 -229 -180 -314 -50 -52 -110 -80 -278 -128 -397
-114 -574 -138 -766 -103 -74 13 -147 45 -228 100 -204 139 -254 202 -361 464
-25 61 -57 133 -71 160 -16 33 -27 76 -31 120 -3 39 -8 80 -11 93 -8 37 37 28
98 -22z m2576 -2453 l-3 -415 -89 124 c-50 67 -145 197 -212 288 -143 196
-147 203 -139 240 3 16 8 93 10 172 3 134 24 268 45 292 4 4 8 -29 8 -73 -1
-45 2 -84 6 -88 3 -3 6 10 6 29 0 49 87 299 111 320 13 11 19 31 21 63 1 35 8
56 27 78 l26 31 6 -30 c6 -28 6 -28 13 11 6 32 25 59 82 120 41 44 75 85 76
90 5 18 8 -825 6 -1252z m-326 825 c-15 -15 -24 -6 -16 16 5 12 10 14 17 7 8
-8 8 -14 -1 -23z"/>
<path d="M22142 44120 c0 -14 2 -19 5 -12 2 6 2 18 0 25 -3 6 -5 1 -5 -13z"/>
<path d="M22152 44010 c0 -19 2 -27 5 -17 2 9 2 25 0 35 -3 9 -5 1 -5 -18z"/>
<path d="M15182 56860 c0 -19 2 -27 5 -17 2 9 2 25 0 35 -3 9 -5 1 -5 -18z"/>
<path d="M14012 56690 c0 -14 2 -19 5 -12 2 6 2 18 0 25 -3 6 -5 1 -5 -13z"/>
<path d="M15271 56554 c0 -11 3 -14 6 -6 3 7 2 16 -1 19 -3 4 -6 -2 -5 -13z"/>
<path d="M9700 56142 c-19 -9 -37 -17 -39 -19 -2 -1 18 -32 44 -68 l46 -66
-69 -102 c-38 -56 -126 -185 -196 -286 -69 -101 -123 -187 -121 -191 3 -4 20
-11 39 -14 19 -4 37 -12 39 -19 6 -16 2 -21 118 148 56 83 144 212 196 287 84
123 92 138 76 147 -17 10 -16 12 6 31 l24 21 -50 72 c-28 40 -57 73 -64 74 -8
1 -30 -6 -49 -15z"/>
<path d="M23327 55763 c-36 -52 -61 -100 -63 -122 -3 -20 -7 -46 -10 -59 -7
-33 -82 -112 -108 -112 -14 0 -34 -20 -63 -63 -24 -34 -43 -65 -43 -68 0 -4
17 -9 38 -12 20 -3 44 -8 52 -11 11 -4 60 61 180 236 91 133 166 245 168 249
3 8 -70 49 -85 49 -4 -1 -34 -40 -66 -87z"/>
<path d="M22100 55790 c-6 -11 -38 -59 -70 -105 -33 -47 -55 -87 -50 -90 6 -4
10 -40 10 -81 0 -41 3 -74 8 -74 4 1 34 41 66 91 l60 90 -1 90 c-1 50 -3 93
-6 96 -3 2 -11 -5 -17 -17z"/>
<path d="M20854 55697 l-61 -92 6 -90 6 -90 61 88 62 88 1 95 c1 52 -2 94 -6
94 -4 -1 -35 -42 -69 -93z"/>
<path d="M18522 55720 c0 -19 2 -27 5 -17 2 9 2 25 0 35 -3 9 -5 1 -5 -18z"/>
<path d="M8647 55602 l-67 -37 -2 -1300 -3 -1300 -116 160 c-64 88 -167 230
-229 315 -63 85 -205 280 -317 433 -112 153 -203 275 -204 270 0 -4 -1 -47 -1
-94 l-1 -86 138 -189 c76 -104 199 -272 274 -374 74 -102 190 -260 257 -353
l122 -167 -118 -173 -119 -173 1 -97 c0 -53 1 -97 3 -97 1 0 71 101 156 225
l154 226 3 -726 c1 -400 1 -1051 0 -1447 l-3 -721 -350 479 c-192 264 -415
569 -496 679 -80 110 -152 210 -160 222 -12 21 -6 32 84 168 54 80 95 150 92
155 -9 14 -77 42 -90 36 -6 -2 -39 -45 -74 -95 -34 -50 -64 -91 -66 -91 -6 0
-7 722 -3 1012 1 26 -4 54 -11 61 -8 11 -9 22 0 43 14 36 15 598 1 634 -6 17
-5 34 4 56 7 17 11 33 9 36 -5 4 -18 316 -17 415 0 34 3 67 7 74 9 14 14 89 6
89 -4 0 -12 9 -19 21 -11 17 -11 25 4 47 11 17 16 42 14 76 -1 28 -3 118 -3
200 -2 149 4 181 35 181 11 0 196 258 197 276 1 6 -100 52 -103 47 -11 -19
-111 -166 -118 -173 -6 -6 -9 -3 -8 10 1 11 2 93 1 182 l-1 162 -80 -55 -80
-55 0 -852 0 -852 -29 30 c-31 32 -536 722 -636 870 -34 49 -74 104 -88 120
-14 17 -34 41 -45 54 l-19 24 -37 -28 c-28 -21 -35 -32 -30 -48 6 -18 69 -105
182 -252 22 -27 105 -140 185 -250 80 -110 225 -308 321 -440 97 -132 176
-246 176 -254 0 -7 -55 -92 -122 -189 l-121 -176 -3 -94 -3 -94 41 58 c22 33
72 104 109 159 38 55 80 114 94 130 l25 30 0 -1357 c0 -747 -2 -1358 -4 -1358
-2 0 -69 89 -148 198 -561 766 -672 918 -711 965 -24 30 -59 76 -77 102 l-32
47 39 57 c22 31 69 99 106 152 l67 97 -24 15 c-63 41 -62 42 -181 -133 l-110
-162 34 -27 c34 -28 34 -29 13 -40 -12 -6 -22 -15 -22 -20 0 -4 25 -41 56 -82
31 -41 59 -81 62 -89 3 -8 98 -141 210 -295 494 -676 649 -889 685 -939 l39
-54 -133 -193 -133 -194 -2 -89 c-2 -50 -1 -93 2 -98 3 -4 26 23 51 60 25 37
80 117 121 177 41 61 79 114 84 120 4 5 8 -596 7 -1335 0 -1259 -1 -1343 -17
-1321 -9 13 -38 51 -63 85 -95 122 -367 493 -380 517 -20 35 -250 351 -270
369 -9 8 -64 81 -122 162 l-107 147 102 147 c111 161 109 149 36 181 -27 12
-28 11 -124 -130 -53 -78 -98 -147 -101 -153 -2 -6 8 -19 22 -28 l25 -17 -26
-22 -27 -23 126 -172 c69 -94 151 -209 182 -256 32 -47 74 -105 94 -128 49
-57 151 -196 151 -205 0 -4 11 -18 24 -32 30 -33 394 -533 440 -605 35 -54 35
-55 19 -88 -9 -18 -64 -103 -123 -188 -59 -85 -112 -164 -118 -176 -11 -21
-12 -189 -1 -176 3 4 59 84 123 179 64 95 121 175 126 178 13 8 13 -1 10 -665
l-2 -575 63 -41 c35 -23 88 -54 118 -69 45 -22 56 -24 67 -13 7 7 51 69 98
138 85 125 85 125 64 141 -12 9 -35 21 -52 26 -31 9 -31 9 -106 -104 -41 -62
-78 -113 -82 -113 -4 0 -8 244 -7 542 0 384 -3 543 -11 548 -8 5 -8 15 1 36
14 37 15 598 1 635 -7 16 -7 31 0 43 10 17 11 98 3 236 -8 149 -8 286 0 300
15 24 11 84 -7 109 -16 21 -16 25 -1 54 10 20 15 51 13 82 -7 138 0 359 12
366 25 15 35 -11 36 -96 2 -82 3 -86 44 -144 24 -33 46 -60 51 -60 4 -1 6 15
4 34 -5 45 14 75 36 56 12 -9 16 -32 15 -92 0 -74 2 -81 34 -126 87 -119 311
-428 315 -432 8 -11 13 11 19 81 l7 76 -258 352 c-228 313 -256 355 -246 374
6 11 48 76 95 143 61 88 81 124 73 131 -13 9 -74 32 -88 32 -4 0 -38 -43 -74
-95 -37 -52 -68 -95 -70 -95 -2 0 -3 162 -2 360 2 332 1 360 -15 360 -25 0
-28 22 -24 154 3 92 8 123 19 131 9 6 17 31 18 55 3 40 1 45 -19 48 -13 2 -26
10 -29 18 -9 23 14 64 35 64 15 0 19 7 18 30 -1 21 -6 30 -18 30 -19 0 -22 13
-18 85 5 81 4 151 -2 207 -6 51 -4 60 14 72 17 12 20 25 20 77 0 54 -3 64 -20
70 -39 15 -40 83 -1 98 17 6 20 18 22 79 3 65 -5 92 -16 60 -3 -10 -7 -10 -18
-1 -12 9 -15 38 -14 128 1 63 -3 115 -7 115 -5 0 -4 9 2 21 7 13 8 25 2 32
-13 16 -3 77 12 77 7 0 17 -5 24 -12 14 -14 13 -15 14 49 1 42 -2 48 -26 56
-49 16 -44 77 8 97 28 10 31 90 5 90 -10 0 -21 6 -26 12 -13 23 -4 301 12 317
24 25 35 2 35 -75 0 -71 2 -76 43 -134 23 -33 45 -60 49 -60 4 0 8 15 10 33 2
24 8 32 23 32 18 0 21 -8 25 -80 l5 -80 206 -280 c113 -154 303 -414 422 -577
l217 -297 -129 -189 -129 -189 0 -101 0 -101 90 132 c49 73 120 177 156 231
l67 99 5 -57 5 -57 78 96 79 96 4 164 c3 131 1 171 -12 200 -14 33 -14 39 0
61 17 25 22 139 7 148 -8 6 -13 97 -14 289 0 46 4 82 11 89 20 20 14 81 -8
101 -25 21 -25 38 1 71 17 22 20 35 14 74 -11 76 -13 335 -3 355 6 11 16 15
31 12 19 -4 32 10 94 102 39 60 186 276 328 482 141 206 261 383 267 394 6 11
89 135 186 275 153 223 173 257 163 274 -10 16 -8 22 10 37 l22 17 -221 305
c-257 355 -452 621 -575 786 -48 65 -94 127 -102 138 -13 18 -14 12 -14 -65 1
-75 4 -91 29 -131 35 -57 140 -202 600 -824 94 -126 169 -232 168 -235 -4 -8
-279 -406 -367 -530 -37 -52 -188 -272 -336 -489 l-270 -393 -7 353 c-9 496
-9 514 -2 612 5 75 4 91 -11 107 -15 17 -16 24 -5 49 19 48 22 587 3 624 -12
24 -12 32 2 59 16 33 21 143 6 152 -5 3 -10 50 -11 103 -1 54 -3 132 -5 173
-2 51 2 82 11 97 16 26 19 93 4 93 -6 0 -15 11 -22 25 -9 19 -8 29 6 50 16 25
16 26 -11 37 l-28 12 34 4 c32 3 33 4 26 40 -8 42 -14 320 -7 340 2 6 14 12
26 12 15 1 36 23 76 83 52 77 55 85 56 147 2 113 3 120 18 120 22 0 29 -17 28
-66 -1 -24 0 -44 2 -44 14 0 66 102 66 131 1 49 -5 107 -11 114 -4 3 -59 -71
-124 -165 -64 -94 -119 -169 -121 -167 -3 2 -11 46 -20 98 -56 340 -58 590 -8
871 14 74 14 90 2 107 -13 19 -15 18 -81 -17z"/>
<path d="M15022 55530 c-67 -96 -67 -95 -63 -234 l1 -59 62 92 62 92 2 100 c2
54 2 99 0 99 -1 0 -30 -40 -64 -90z"/>
<path d="M18521 55554 c0 -11 3 -14 6 -6 3 7 2 16 -1 19 -3 4 -6 -2 -5 -13z"/>
<path d="M20690 55458 c-24 -35 -134 -198 -245 -363 -110 -165 -254 -378 -319
-473 -65 -95 -117 -174 -115 -176 41 -30 71 -47 79 -44 5 2 65 84 133 183 108
157 122 182 111 196 -8 8 -14 20 -14 26 0 15 84 103 98 103 6 0 36 25 66 55
29 30 52 55 50 55 -5 0 95 151 168 253 l48 67 -2 90 c-2 50 -6 90 -9 90 -3 0
-25 -28 -49 -62z"/>
<path d="M8463 55390 c0 -25 2 -35 4 -22 2 12 2 32 0 45 -2 12 -4 2 -4 -23z"/>
<path d="M18511 55374 c0 -11 3 -14 6 -6 3 7 2 16 -1 19 -3 4 -6 -2 -5 -13z"/>
<path d="M16107 55298 l-48 -71 3 -85 3 -86 98 142 c53 79 97 145 97 147 0 3
-20 5 -45 5 -25 0 -45 5 -45 10 0 23 -18 5 -63 -62z"/>
<path d="M9257 55266 c-61 -89 -69 -118 -58 -210 l6 -50 53 76 c28 42 52 85
52 96 0 44 21 81 50 87 16 3 36 18 45 31 16 24 15 27 -2 40 -10 7 -34 14 -54
14 -33 0 -39 -5 -92 -84z"/>
<path d="M8138 55304 c-56 -35 -58 -37 -58 -80 0 -24 3 -44 8 -44 4 0 31 36
60 80 28 44 51 80 50 80 -2 0 -29 -17 -60 -36z"/>
<path d="M8462 55310 c0 -14 2 -19 5 -12 2 6 2 18 0 25 -3 6 -5 1 -5 -13z"/>
<path d="M22974 55247 c-24 -37 -26 -45 -19 -113 4 -41 10 -74 14 -74 6 0 29
34 54 83 7 13 30 44 51 70 21 26 36 50 32 54 -3 4 -29 9 -56 13 -49 6 -50 6
-76 -33z"/>
<path d="M7987 55210 c-28 -22 -182 -239 -174 -246 2 -2 10 2 16 10 10 12 17
13 30 4 14 -9 17 -21 13 -59 -2 -27 -1 -49 4 -48 5 0 42 51 83 112 67 100 75
117 76 162 1 57 -4 85 -15 85 -4 0 -19 -9 -33 -20z"/>
<path d="M8462 55190 c0 -19 2 -27 5 -17 2 9 2 25 0 35 -3 9 -5 1 -5 -18z"/>
<path d="M15979 55107 c-22 -37 -25 -51 -21 -114 2 -40 7 -73 11 -73 4 0 15
14 25 31 15 25 19 51 18 112 -1 44 -3 81 -4 83 -2 1 -15 -16 -29 -39z"/>
<path d="M9131 55081 c-6 -10 -10 -58 -10 -107 0 -78 2 -87 14 -70 10 13 14
46 13 107 -1 49 -3 89 -4 89 -2 0 -8 -8 -13 -19z"/>
<path d="M8462 55050 c0 -14 2 -19 5 -12 2 6 2 18 0 25 -3 6 -5 1 -5 -13z"/>
<path d="M22796 54990 c-41 -62 -44 -70 -26 -70 11 0 23 -7 26 -15 9 -23 -5
-65 -21 -65 -10 0 -15 -11 -15 -35 0 -19 3 -35 8 -35 4 0 26 30 49 67 42 65
43 68 39 140 -2 41 -5 76 -8 78 -3 3 -26 -26 -52 -65z"/>
<path d="M22901 55024 c0 -11 3 -14 6 -6 3 7 2 16 -1 19 -3 4 -6 -2 -5 -13z"/>
<path d="M22900 54984 c0 -8 5 -12 10 -9 6 3 10 10 10 16 0 5 -4 9 -10 9 -5 0
-10 -7 -10 -16z"/>
<path d="M9054 54972 c-8 -12 -8 -39 -2 -87 13 -102 15 -101 19 8 2 53 2 97
-1 97 -3 0 -10 -8 -16 -18z"/>
<path d="M21791 54894 c0 -11 3 -14 6 -6 3 7 2 16 -1 19 -3 4 -6 -2 -5 -13z"/>
<path d="M7768 54834 l-48 -32 37 -22 c54 -32 76 -13 63 55 l-5 30 -47 -31z"/>
<path d="M15062 54835 c0 -16 2 -22 5 -12 2 9 2 23 0 30 -3 6 -5 -1 -5 -18z"/>
<path d="M8462 54810 c0 -14 2 -19 5 -12 2 6 2 18 0 25 -3 6 -5 1 -5 -13z"/>
<path d="M21720 54801 c0 -6 4 -13 10 -16 6 -3 7 1 4 9 -7 18 -14 21 -14 7z"/>
<path d="M14622 54769 c-13 -5 -20 -14 -17 -20 5 -7 13 -4 26 7 10 9 19 19 19
21 0 4 0 4 -28 -8z"/>
<path d="M7892 54720 c0 -19 2 -27 5 -17 2 9 2 25 0 35 -3 9 -5 1 -5 -18z"/>
<path d="M15061 54644 c0 -11 3 -14 6 -6 3 7 2 16 -1 19 -3 4 -6 -2 -5 -13z"/>
<path d="M15061 54574 c0 -11 3 -14 6 -6 3 7 2 16 -1 19 -3 4 -6 -2 -5 -13z"/>
<path d="M15062 54440 c0 -14 2 -19 5 -12 2 6 2 18 0 25 -3 6 -5 1 -5 -13z"/>
<path d="M8462 54430 c0 -14 2 -19 5 -12 2 6 2 18 0 25 -3 6 -5 1 -5 -13z"/>
<path d="M14872 54370 c0 -14 2 -19 5 -12 2 6 2 18 0 25 -3 6 -5 1 -5 -13z"/>
<path d="M7557 54273 c1 -43 2 -85 2 -93 1 -22 82 -130 93 -124 4 3 7 29 6 58
-1 30 3 60 9 67 9 11 -1 30 -43 89 -30 41 -58 76 -62 78 -4 1 -6 -33 -5 -75z"/>
<path d="M8780 54244 l0 -86 47 -64 c26 -35 49 -64 52 -64 3 0 6 37 6 83 0 81
-1 84 -44 150 -24 37 -47 67 -52 67 -5 0 -9 -39 -9 -86z"/>
<path d="M14872 54260 c0 -14 2 -19 5 -12 2 6 2 18 0 25 -3 6 -5 1 -5 -13z"/>
<path d="M15051 54264 c0 -11 3 -14 6 -6 3 7 2 16 -1 19 -3 4 -6 -2 -5 -13z"/>
<path d="M15629 54255 c0 -5 -2 -48 -3 -95 l-4 -85 40 -53 c51 -68 66 -60 66
36 0 58 -4 72 -28 102 -15 19 -37 51 -49 70 -11 19 -21 31 -22 25z"/>
<path d="M8461 54174 c0 -11 3 -14 6 -6 3 7 2 16 -1 19 -3 4 -6 -2 -5 -13z"/>
<path d="M8462 54040 c0 -14 2 -19 5 -12 2 6 2 18 0 25 -3 6 -5 1 -5 -13z"/>
<path d="M22110 54041 c0 -6 4 -13 10 -16 6 -3 7 1 4 9 -7 18 -14 21 -14 7z"/>
<path d="M8471 53714 c0 -11 3 -14 6 -6 3 7 2 16 -1 19 -3 4 -6 -2 -5 -13z"/>
<path d="M15183 53665 c0 -22 2 -30 4 -17 2 12 2 30 0 40 -3 9 -5 -1 -4 -23z"/>
<path d="M8471 53514 c0 -11 3 -14 6 -6 3 7 2 16 -1 19 -3 4 -6 -2 -5 -13z"/>
<path d="M8491 53374 c0 -11 3 -14 6 -6 3 7 2 16 -1 19 -3 4 -6 -2 -5 -13z"/>
<path d="M15272 53365 c0 -16 2 -22 5 -12 2 9 2 23 0 30 -3 6 -5 -1 -5 -18z"/>
<path d="M27578 52242 c-108 -158 -287 -419 -398 -581 -204 -297 -219 -321
-204 -321 5 0 20 -9 34 -20 l25 -20 -23 -18 -23 -18 42 -54 c22 -30 55 -77 73
-105 18 -27 115 -162 216 -300 101 -137 229 -313 285 -390 56 -77 177 -243
269 -369 101 -137 166 -235 163 -245 -2 -9 -152 -232 -332 -496 -181 -264
-338 -495 -350 -512 -11 -18 -98 -146 -192 -285 l-173 -253 28 -23 c28 -23 28
-24 -16 -51 -16 -9 42 -90 641 -905 268 -364 388 -534 395 -558 2 -9 -3 -27
-12 -40 -9 -13 -49 -72 -89 -133 -77 -116 -626 -918 -830 -1214 -93 -135 -117
-175 -106 -182 45 -27 45 -28 17 -54 l-28 -24 138 -188 c76 -103 158 -217 182
-253 25 -36 81 -115 127 -177 317 -431 596 -819 600 -833 3 -10 -72 -128 -189
-298 -106 -155 -283 -414 -393 -576 -110 -163 -260 -383 -333 -491 l-133 -196
23 -19 c19 -17 21 -21 8 -29 -58 -36 -65 -19 112 -262 90 -123 172 -237 182
-254 11 -16 117 -162 235 -323 119 -161 240 -327 270 -370 30 -42 89 -124 132
-181 l76 -105 -61 -91 c-33 -51 -270 -398 -525 -771 -255 -373 -465 -684 -467
-689 -3 -6 10 -19 27 -29 l32 -19 -22 -18 -22 -18 229 -313 c125 -172 237
-326 248 -343 10 -16 54 -78 97 -137 l79 -108 64 0 c35 0 64 4 64 8 0 8 -129
185 -271 373 -66 88 -402 549 -412 566 -6 10 615 929 904 1337 l49 70 2 -1165
3 -1164 35 1 c19 0 56 4 82 8 l48 7 2 380 3 380 263 -360 264 -361 70 0 70 0
-39 53 c-21 30 -158 218 -305 419 -148 202 -268 372 -268 378 0 7 138 213 306
459 168 245 392 573 497 728 106 155 196 282 200 283 4 0 7 -6 6 -12 -1 -7 -1
-521 0 -1143 l1 -1130 80 3 80 4 2 329 3 330 130 -178 c71 -98 173 -238 227
-310 l98 -133 65 0 c36 0 65 3 65 6 0 3 -122 172 -271 376 l-270 370 27 42
c15 22 140 205 278 406 137 201 277 406 310 456 119 179 296 441 362 537 64
91 67 98 49 111 -18 13 -17 14 8 31 l27 17 -37 52 c-20 28 -66 94 -101 146
-36 52 -91 129 -123 170 -57 73 -287 384 -632 855 -114 156 -167 236 -164 250
2 11 142 223 312 470 169 248 404 590 521 761 118 172 217 319 220 328 3 9 1
16 -5 16 -19 0 -12 29 9 40 20 11 19 13 -22 71 -24 32 -52 74 -63 92 -17 29
-104 148 -465 642 -64 88 -204 279 -309 423 l-193 264 75 111 c41 62 196 289
344 506 147 216 293 432 325 480 31 47 113 168 182 269 69 101 126 187 126
191 0 5 -8 12 -17 15 -15 6 -14 10 10 29 l27 22 -203 277 c-111 153 -213 296
-227 318 -13 23 -36 53 -50 68 -14 15 -75 95 -135 177 -60 83 -176 242 -258
354 -81 112 -159 221 -173 242 l-24 39 21 36 c11 21 171 257 355 526 l335 489
-28 48 -28 48 -175 -255 c-96 -140 -240 -349 -320 -464 -80 -115 -158 -229
-175 -253 -16 -24 -33 -44 -37 -44 -5 -1 -8 485 -8 1078 l0 1079 -57 84 c-32
47 -68 98 -80 114 l-22 29 -2 -375 c-1 -206 0 -382 1 -390 1 -13 0 -13 -13 0
-7 8 -86 114 -174 235 -88 121 -288 396 -445 610 -156 215 -308 422 -336 461
l-52 72 130 191 131 191 -19 28 c-53 74 -45 78 -172 -106 l-115 -167 -5 312
-5 311 -75 85 c-41 47 -78 86 -82 86 -5 1 -9 -497 -10 -1105 l-3 -1106 -319
439 c-176 241 -391 533 -478 649 -87 117 -158 215 -158 219 0 3 170 255 378
558 208 304 381 557 385 563 3 6 -11 27 -31 47 l-38 37 -196 -288z m719 -1187
c43 -60 148 -204 233 -320 147 -201 397 -543 597 -818 51 -70 93 -132 93 -137
0 -5 -138 -211 -307 -457 -169 -247 -364 -531 -433 -633 -70 -102 -159 -232
-198 -289 l-72 -104 0 1438 c0 791 2 1436 4 1434 1 -2 39 -53 83 -114z m983
-2821 c0 -793 -4 -1413 -9 -1410 -4 3 -42 52 -83 108 -41 57 -144 198 -228
313 -85 116 -237 325 -340 465 -102 140 -222 305 -267 366 l-81 111 198 289
c109 159 263 384 343 499 79 116 215 315 303 443 87 127 160 232 161 232 2 0
3 -637 3 -1416z m-1240 20 l0 -1336 -84 114 c-133 178 -348 472 -437 598 -45
63 -114 157 -153 209 -39 52 -117 158 -174 234 l-104 139 103 152 c56 83 116
169 134 191 17 22 74 103 127 180 52 77 182 266 288 420 106 154 215 315 244
357 28 43 52 78 54 78 1 0 2 -601 2 -1336z m567 -718 c197 -270 417 -571 489
-670 l132 -181 -43 -60 c-23 -33 -131 -190 -240 -350 -109 -159 -242 -353
-295 -430 -53 -77 -170 -248 -260 -380 -90 -132 -167 -244 -171 -249 -5 -6 -9
636 -9 1425 0 1425 1 1434 20 1409 11 -14 181 -245 377 -514z m914 415 c186
-244 454 -612 474 -651 8 -16 19 -30 23 -30 4 0 39 -45 77 -100 76 -109 135
-189 276 -377 l91 -123 -145 -207 c-80 -115 -306 -442 -502 -728 -197 -286
-361 -524 -366 -529 -5 -6 -9 606 -9 1419 0 786 4 1425 8 1420 5 -6 38 -48 73
-94z m-241 -2818 l-1 -1418 -24 30 c-14 17 -107 143 -207 280 -100 138 -250
342 -332 455 -82 113 -216 296 -298 408 l-148 202 304 443 c166 243 383 559
481 702 219 320 215 315 221 315 2 0 4 -638 4 -1417z m-1242 -640 l-3 -667
-305 418 c-168 230 -315 430 -327 445 -32 38 -313 421 -313 427 0 3 68 105
152 227 83 122 289 422 456 667 167 245 312 453 321 464 15 17 16 -31 19 -648
1 -366 1 -966 0 -1333z m229 410 c528 -722 945 -1297 949 -1308 6 -14 -24 -59
-375 -570 -90 -132 -265 -388 -389 -570 -124 -181 -229 -334 -234 -339 -4 -6
-8 634 -8 1422 0 788 2 1432 4 1432 2 0 26 -30 53 -67z m1400 -253 c424 -583
690 -946 754 -1027 l40 -51 -293 -429 c-431 -628 -635 -923 -666 -964 -15 -19
-35 -46 -44 -60 -16 -23 -17 58 -17 1406 -1 1199 1 1427 12 1415 8 -8 104
-139 214 -290z m-387 -2632 c0 -1207 -2 -1430 -14 -1418 -11 13 -918 1253
-983 1346 l-22 31 116 169 c63 93 237 347 386 564 360 527 508 740 513 740 2
0 4 -644 4 -1432z m-1242 -648 l-3 -669 -48 62 c-26 34 -187 253 -358 487
-171 234 -364 497 -429 585 -66 88 -120 163 -120 167 0 6 57 90 271 395 41 59
212 308 380 553 l304 444 3 -678 c1 -373 1 -979 0 -1346z m444 110 c258 -354
553 -759 656 -899 34 -47 62 -88 62 -92 0 -8 13 11 -415 -614 -170 -247 -367
-535 -438 -640 -71 -104 -132 -192 -133 -194 -2 -2 -4 627 -4 1399 0 1211 2
1402 14 1390 8 -8 124 -166 258 -350z m1357 -186 c174 -239 328 -453 343 -477
15 -23 60 -84 101 -135 40 -50 92 -118 115 -151 l41 -59 -110 -158 c-60 -88
-140 -202 -177 -254 -38 -52 -142 -203 -232 -335 -359 -525 -453 -661 -466
-675 -12 -12 -14 186 -14 1380 l0 1395 41 -48 c23 -27 184 -244 358 -483z"/>
<path d="M28972 48690 c0 -14 2 -19 5 -12 2 6 2 18 0 25 -3 6 -5 1 -5 -13z"/>
<path d="M28972 48460 c0 -19 2 -27 5 -17 2 9 2 25 0 35 -3 9 -5 1 -5 -18z"/>
<path d="M28961 48114 c0 -11 3 -14 6 -6 3 7 2 16 -1 19 -3 4 -6 -2 -5 -13z"/>
<path d="M28961 48064 c0 -11 3 -14 6 -6 3 7 2 16 -1 19 -3 4 -6 -2 -5 -13z"/>
<path d="M28961 48014 c0 -11 3 -14 6 -6 3 7 2 16 -1 19 -3 4 -6 -2 -5 -13z"/>
<path d="M29102 47300 c0 -14 2 -19 5 -12 2 6 2 18 0 25 -3 6 -5 1 -5 -13z"/>
<path d="M27762 47970 c0 -14 2 -19 5 -12 2 6 2 18 0 25 -3 6 -5 1 -5 -13z"/>
<path d="M27752 47830 c0 -19 2 -27 5 -17 2 9 2 25 0 35 -3 9 -5 1 -5 -18z"/>
<path d="M27751 47744 c0 -11 3 -14 6 -6 3 7 2 16 -1 19 -3 4 -6 -2 -5 -13z"/>
<path d="M27753 47645 c0 -27 2 -38 4 -22 2 15 2 37 0 50 -2 12 -4 0 -4 -28z"/>
<path d="M27992 47210 c0 -14 2 -19 5 -12 2 6 2 18 0 25 -3 6 -5 1 -5 -13z"/>
<path d="M28971 45634 c0 -11 3 -14 6 -6 3 7 2 16 -1 19 -3 4 -6 -2 -5 -13z"/>
<path d="M28972 45410 c0 -19 2 -27 5 -17 2 9 2 25 0 35 -3 9 -5 1 -5 -18z"/>
<path d="M28971 45254 c0 -11 3 -14 6 -6 3 7 2 16 -1 19 -3 4 -6 -2 -5 -13z"/>
<path d="M28961 45064 c0 -11 3 -14 6 -6 3 7 2 16 -1 19 -3 4 -6 -2 -5 -13z"/>
<path d="M28961 44964 c0 -11 3 -14 6 -6 3 7 2 16 -1 19 -3 4 -6 -2 -5 -13z"/>
<path d="M29102 44250 c0 -14 2 -19 5 -12 2 6 2 18 0 25 -3 6 -5 1 -5 -13z"/>
<path d="M27891 45184 c0 -11 3 -14 6 -6 3 7 2 16 -1 19 -3 4 -6 -2 -5 -13z"/>
<path d="M27752 44780 c0 -19 2 -27 5 -17 2 9 2 25 0 35 -3 9 -5 1 -5 -18z"/>
<path d="M27752 44705 c0 -16 2 -22 5 -12 2 9 2 23 0 30 -3 6 -5 -1 -5 -18z"/>
<path d="M27753 44595 c0 -27 2 -38 4 -22 2 15 2 37 0 50 -2 12 -4 0 -4 -28z"/>
<path d="M27992 44160 c0 -14 2 -19 5 -12 2 6 2 18 0 25 -3 6 -5 1 -5 -13z"/>
<path d="M28972 42545 c0 -16 2 -22 5 -12 2 9 2 23 0 30 -3 6 -5 -1 -5 -18z"/>
<path d="M28972 42315 c0 -16 2 -22 5 -12 2 9 2 23 0 30 -3 6 -5 -1 -5 -18z"/>
<path d="M28971 42164 c0 -11 3 -14 6 -6 3 7 2 16 -1 19 -3 4 -6 -2 -5 -13z"/>
<path d="M28524 42128 l-19 -23 23 19 c12 11 22 21 22 23 0 8 -8 2 -26 -19z"/>
<path d="M28962 41970 c0 -14 2 -19 5 -12 2 6 2 18 0 25 -3 6 -5 1 -5 -13z"/>
<path d="M28961 41874 c0 -11 3 -14 6 -6 3 7 2 16 -1 19 -3 4 -6 -2 -5 -13z"/>
<path d="M28951 41764 c0 -11 3 -14 6 -6 3 7 2 16 -1 19 -3 4 -6 -2 -5 -13z"/>
<path d="M29101 41154 c0 -11 3 -14 6 -6 3 7 2 16 -1 19 -3 4 -6 -2 -5 -13z"/>
<path d="M27891 42094 c0 -11 3 -14 6 -6 3 7 2 16 -1 19 -3 4 -6 -2 -5 -13z"/>
<path d="M27752 41680 c0 -19 2 -27 5 -17 2 9 2 25 0 35 -3 9 -5 1 -5 -18z"/>
<path d="M27753 41500 c0 -30 2 -43 4 -27 2 15 2 39 0 55 -2 15 -4 2 -4 -28z"/>
<path d="M27992 41070 c0 -14 2 -19 5 -12 2 6 2 18 0 25 -3 6 -5 1 -5 -13z"/>
<path d="M15019 52433 l-63 -88 3 -95 c1 -52 3 -96 5 -97 2 -2 29 36 61 84
l59 88 2 98 c1 53 0 97 -1 97 -2 0 -31 -39 -66 -87z"/>
<path d="M6967 52368 c-55 -82 -56 -84 -60 -170 -2 -49 -2 -88 2 -88 3 0 32
40 63 88 56 86 57 88 59 165 1 43 -1 80 -3 83 -3 3 -31 -32 -61 -78z"/>
<path d="M8143 52362 l-61 -91 -1 -91 c0 -49 3 -90 7 -90 5 0 34 38 66 84 l57
84 -3 98 -3 97 -62 -91z"/>
<path d="M8463 52330 c0 -25 2 -35 4 -22 2 12 2 32 0 45 -2 12 -4 2 -4 -23z"/>
<path d="M8462 52245 c0 -16 2 -22 5 -12 2 9 2 23 0 30 -3 6 -5 -1 -5 -18z"/>
<path d="M14890 52253 c0 -6 -76 -123 -170 -258 -93 -136 -170 -249 -170 -251
0 -10 43 20 102 71 34 30 66 55 70 55 4 0 13 -6 20 -14 11 -11 26 6 90 102
l77 116 0 81 c0 44 -4 87 -9 95 -6 9 -10 10 -10 3z"/>
<path d="M6770 52083 c-70 -102 -74 -111 -76 -166 -1 -32 1 -69 5 -83 6 -24
13 -17 80 82 l74 107 3 84 c1 45 -1 83 -5 83 -4 0 -41 -48 -81 -107z"/>
<path d="M7934 52056 c-77 -112 -88 -133 -75 -142 10 -8 14 -27 13 -65 -1 -30
2 -61 8 -69 8 -12 10 -12 10 -1 0 8 32 59 71 115 l71 100 0 93 c1 52 -1 95 -3
97 -2 2 -45 -55 -95 -128z"/>
<path d="M8462 52120 c0 -19 2 -27 5 -17 2 9 2 25 0 35 -3 9 -5 1 -5 -18z"/>
<path d="M17371 52124 c0 -11 3 -14 6 -6 3 7 2 16 -1 19 -3 4 -6 -2 -5 -13z"/>
<path d="M17361 52024 c0 -11 3 -14 6 -6 3 7 2 16 -1 19 -3 4 -6 -2 -5 -13z"/>
<path d="M6603 51822 c-18 -15 -33 -32 -35 -39 -2 -9 63 -63 76 -63 5 0 -1
120 -6 125 -2 2 -18 -9 -35 -23z"/>
<path d="M7790 51779 c-14 -11 -36 -24 -49 -30 -27 -11 -24 -15 39 -52 l46
-25 -3 60 c-2 34 -4 62 -6 64 -1 1 -13 -6 -27 -17z"/>
<path d="M15062 51775 c0 -16 2 -22 5 -12 2 9 2 23 0 30 -3 6 -5 -1 -5 -18z"/>
<path d="M8462 51740 c0 -14 2 -19 5 -12 2 6 2 18 0 25 -3 6 -5 1 -5 -13z"/>
<path d="M14647 51720 c-14 -11 -30 -20 -37 -20 -16 0 -7 -24 11 -28 14 -3 65
55 56 64 -2 2 -15 -5 -30 -16z"/>
<path d="M7892 51660 c0 -19 2 -27 5 -17 2 9 2 25 0 35 -3 9 -5 1 -5 -18z"/>
<path d="M13882 51595 c0 -16 2 -22 5 -12 2 9 2 23 0 30 -3 6 -5 -1 -5 -18z"/>
<path d="M13812 51575 c0 -16 2 -22 5 -12 2 9 2 23 0 30 -3 6 -5 -1 -5 -18z"/>
<path d="M15063 51550 c0 -30 2 -43 4 -27 2 15 2 39 0 55 -2 15 -4 2 -4 -28z"/>
<path d="M13813 51485 c0 -33 2 -45 4 -27 2 18 2 45 0 60 -2 15 -4 0 -4 -33z"/>
<path d="M13882 51425 c0 -16 2 -22 5 -12 2 9 2 23 0 30 -3 6 -5 -1 -5 -18z"/>
<path d="M15061 51374 c0 -11 3 -14 6 -6 3 7 2 16 -1 19 -3 4 -6 -2 -5 -13z"/>
<path d="M7201 51364 c0 -11 3 -14 6 -6 3 7 2 16 -1 19 -3 4 -6 -2 -5 -13z"/>
<path d="M8461 51364 c0 -11 3 -14 6 -6 3 7 2 16 -1 19 -3 4 -6 -2 -5 -13z"/>
<path d="M27891 51364 c0 -11 3 -14 6 -6 3 7 2 16 -1 19 -3 4 -6 -2 -5 -13z"/>
<path d="M14609 51353 c-13 -16 -12 -17 4 -4 9 7 17 15 17 17 0 8 -8 3 -21
-13z"/>
<path d="M13731 51334 c0 -11 3 -14 6 -6 3 7 2 16 -1 19 -3 4 -6 -2 -5 -13z"/>
<path d="M13802 51320 c0 -14 2 -19 5 -12 2 6 2 18 0 25 -3 6 -5 1 -5 -13z"/>
<path d="M14872 51300 c0 -14 2 -19 5 -12 2 6 2 18 0 25 -3 6 -5 1 -5 -13z"/>
<path d="M8780 51181 l0 -93 47 -64 c26 -35 50 -59 53 -54 3 6 5 29 4 53 -1
23 4 51 11 62 11 18 7 28 -42 95 -30 41 -59 79 -64 85 -5 5 -9 -27 -9 -84z"/>
<path d="M15052 51200 c0 -14 2 -19 5 -12 2 6 2 18 0 25 -3 6 -5 1 -5 -13z"/>
<path d="M14872 51190 c0 -14 2 -19 5 -12 2 6 2 18 0 25 -3 6 -5 1 -5 -13z"/>
<path d="M15629 51189 c0 -2 -1 -44 -2 -94 -2 -83 0 -92 27 -132 25 -38 53
-63 70 -63 3 0 5 22 5 48 -1 27 1 57 5 69 4 12 -1 29 -12 44 -10 13 -35 48
-55 78 -21 29 -37 52 -38 50z"/>
<path d="M8461 51104 c0 -11 3 -14 6 -6 3 7 2 16 -1 19 -3 4 -6 -2 -5 -13z"/>
<path d="M27761 51094 c0 -11 3 -14 6 -6 3 7 2 16 -1 19 -3 4 -6 -2 -5 -13z"/>
<path d="M8931 50969 l2 -90 100 -137 c55 -75 158 -217 229 -314 71 -97 133
-180 138 -183 10 -6 85 28 94 43 2 4 -63 100 -145 212 -82 113 -207 285 -277
382 -70 97 -131 177 -135 178 -4 0 -7 -41 -6 -91z"/>
<path d="M28951 51034 c0 -11 3 -14 6 -6 3 7 2 16 -1 19 -3 4 -6 -2 -5 -13z"/>
<path d="M8462 50965 c0 -16 2 -22 5 -12 2 9 2 23 0 30 -3 6 -5 -1 -5 -18z"/>
<path d="M15777 50945 c-9 -54 0 -70 46 -82 23 -6 43 -10 45 -8 2 2 -17 30
-41 63 l-45 61 -5 -34z"/>
<path d="M27752 50950 c0 -19 2 -27 5 -17 2 9 2 25 0 35 -3 9 -5 1 -5 -18z"/>
<path d="M27753 50770 c0 -30 2 -43 4 -27 2 15 2 39 0 55 -2 15 -4 2 -4 -28z"/>
<path d="M7512 50630 c0 -19 2 -27 5 -17 2 9 2 25 0 35 -3 9 -5 1 -5 -18z"/>
<path d="M8471 50564 c0 -11 3 -14 6 -6 3 7 2 16 -1 19 -3 4 -6 -2 -5 -13z"/>
<path d="M8471 50444 c0 -11 3 -14 6 -6 3 7 2 16 -1 19 -3 4 -6 -2 -5 -13z"/>
<path d="M29101 50424 c0 -11 3 -14 6 -6 3 7 2 16 -1 19 -3 4 -6 -2 -5 -13z"/>
<path d="M7301 50344 c0 -11 3 -14 6 -6 3 7 2 16 -1 19 -3 4 -6 -2 -5 -13z"/>
<path d="M27992 50340 c0 -14 2 -19 5 -12 2 6 2 18 0 25 -3 6 -5 1 -5 -13z"/>
<path d="M8492 50300 c0 -14 2 -19 5 -12 2 6 2 18 0 25 -3 6 -5 1 -5 -13z"/>
<path d="M2813 50075 c-30 -45 -29 -52 11 -105 l34 -45 -52 -75 c-50 -70 -650
-947 -761 -1110 -28 -41 -95 -163 -149 -272 l-98 -196 32 -44 c17 -23 39 -44
48 -44 9 -1 23 -2 30 -3 7 -1 12 -15 12 -33 0 -40 97 -178 119 -170 16 5 31
-15 31 -45 0 -24 154 -241 609 -860 94 -127 171 -236 171 -242 0 -11 -238
-360 -317 -466 -67 -89 -743 -1078 -743 -1087 0 -4 12 -15 26 -24 l25 -17 -28
-23 -28 -22 34 -48 c19 -27 71 -98 116 -159 45 -60 154 -209 242 -330 88 -121
217 -299 288 -395 71 -96 176 -240 233 -320 58 -80 116 -156 129 -169 12 -13
23 -29 23 -36 0 -6 -35 -63 -78 -126 -588 -860 -870 -1269 -891 -1294 -14 -17
-41 -54 -60 -84 l-35 -54 22 -17 22 -18 -32 -24 c-31 -24 -32 -26 -16 -49 34
-52 87 -109 93 -99 3 5 15 10 26 10 16 0 19 -7 19 -46 0 -39 7 -56 47 -110 48
-65 57 -72 68 -54 13 21 35 -12 35 -50 0 -33 30 -79 263 -399 144 -199 296
-409 337 -468 41 -59 94 -129 117 -157 24 -27 43 -55 43 -60 0 -6 -58 -94
-129 -196 -180 -257 -431 -620 -581 -840 -70 -102 -177 -258 -238 -348 -62
-89 -112 -167 -112 -171 0 -5 12 -18 28 -30 26 -19 27 -20 7 -34 -19 -14 -18
-16 21 -75 29 -44 44 -58 52 -50 21 21 42 0 42 -41 0 -55 82 -169 120 -167 22
1 25 -4 28 -38 4 -41 4 -41 631 -898 l151 -208 -108 -157 c-182 -265 -845
-1233 -901 -1316 -44 -66 -50 -81 -40 -94 11 -13 10 -18 -9 -33 -12 -10 -22
-21 -22 -25 0 -3 21 -35 46 -71 46 -64 46 -64 63 -42 26 31 42 15 40 -40 -2
-42 3 -54 46 -114 42 -57 50 -64 60 -51 22 30 45 8 45 -44 0 -47 6 -56 380
-568 209 -286 380 -525 380 -531 0 -6 -15 -28 -33 -50 -39 -46 -235 -331 -256
-372 -16 -31 -98 -149 -119 -172 -8 -8 -72 -100 -144 -205 -126 -183 -170
-249 -401 -587 -59 -86 -107 -161 -107 -166 0 -6 16 -21 37 -33 l36 -22 -28
-23 -28 -23 38 -55 c33 -49 40 -54 50 -39 23 31 45 8 45 -45 0 -42 6 -57 46
-110 37 -50 49 -60 60 -51 26 21 44 3 44 -45 0 -41 8 -57 93 -173 110 -151
396 -544 556 -763 63 -85 117 -160 122 -166 6 -7 -21 -55 -72 -130 l-81 -118
16 -31 c9 -16 24 -40 34 -52 17 -22 18 -20 119 127 87 129 99 151 86 162 -13
11 -13 14 6 29 12 10 21 20 21 23 0 3 -44 65 -97 138 -53 73 -156 214 -228
313 -72 99 -219 299 -325 445 -265 362 -425 583 -434 597 -4 8 10 38 35 75 58
86 390 571 511 745 54 79 98 145 98 148 0 8 116 179 132 196 18 18 259 369
266 388 3 7 -1 17 -9 22 -11 8 -9 13 10 30 l24 20 -25 27 c-23 25 -951 1297
-973 1334 -5 9 -23 35 -38 56 l-28 40 102 148 c56 82 165 241 241 354 77 113
271 396 432 630 264 382 292 427 279 442 -13 15 -12 18 6 30 12 7 21 16 21 20
0 4 -73 108 -163 230 -176 240 -469 640 -746 1021 -95 130 -171 243 -168 250
2 6 142 212 309 457 168 245 310 455 317 468 16 29 379 561 399 585 14 16 14
19 -4 31 -18 14 -18 15 6 34 l24 19 -67 99 c-37 55 -98 140 -137 189 -97 125
-843 1144 -854 1166 -6 12 -1 27 16 51 14 18 202 292 418 608 216 316 447 653
513 748 111 161 118 174 101 187 -18 12 -17 14 5 33 l24 19 -24 34 c-13 19
-31 46 -39 61 -8 14 -231 322 -495 683 -264 361 -486 667 -494 680 -16 26 -29
6 410 645 115 168 209 307 209 310 0 3 94 142 209 310 192 280 208 306 194
322 -14 16 -14 19 7 36 l24 19 -160 221 c-87 122 -181 254 -209 294 -27 39
-58 80 -68 91 -10 10 -158 209 -328 443 -194 265 -307 429 -303 436 4 7 60 90
124 183 64 94 265 386 445 650 181 264 364 531 408 594 73 107 78 116 61 128
-17 13 -17 14 4 29 12 8 22 19 22 23 0 12 -110 161 -118 161 -4 0 -17 -16 -29
-35z"/>
<path d="M17382 49530 c0 -14 2 -19 5 -12 2 6 2 18 0 25 -3 6 -5 1 -5 -13z"/>
<path d="M4651 49414 c0 -11 3 -14 6 -6 3 7 2 16 -1 19 -3 4 -6 -2 -5 -13z"/>
<path d="M7017 49326 c-3 -7 -29 -46 -57 -86 l-51 -72 0 -86 c-1 -48 0 -93 0
-101 1 -8 28 25 61 72 l59 86 2 95 c2 93 -2 123 -14 92z"/>
<path d="M8144 49229 l-62 -94 -1 -83 c-1 -46 1 -88 4 -93 4 -5 31 28 62 74
54 79 57 85 61 157 8 145 5 147 -64 39z"/>
<path d="M6769 48960 l-77 -115 3 -83 c2 -46 5 -85 7 -88 3 -2 38 44 78 102
l73 107 2 87 c2 48 0 91 -4 96 -3 5 -40 -42 -82 -106z"/>
<path d="M7993 49012 c-17 -26 -57 -85 -89 -131 -50 -72 -56 -85 -42 -95 10
-8 14 -22 10 -44 -5 -37 8 -115 16 -92 3 8 36 60 74 115 67 98 68 102 71 170
2 39 0 82 -3 97 -5 27 -5 26 -37 -20z"/>
<path d="M6593 48685 l-37 -37 29 -16 c17 -8 34 -21 38 -28 18 -30 27 -11 22
47 -2 34 -6 64 -9 67 -3 2 -22 -12 -43 -33z"/>
<path d="M7775 48648 c-48 -35 -54 -48 -26 -55 12 -3 21 -9 21 -14 0 -5 7 -9
15 -9 8 0 15 -4 15 -10 0 -5 4 -10 9 -10 12 0 19 54 12 94 l-6 33 -40 -29z"/>
<path d="M6712 48575 c0 -16 2 -22 5 -12 2 9 2 23 0 30 -3 6 -5 -1 -5 -18z"/>
<path d="M7892 48530 c0 -19 2 -27 5 -17 2 9 2 25 0 35 -3 9 -5 1 -5 -18z"/>
<path d="M4020 47885 c-605 -232 -737 -286 -762 -314 -54 -60 -52 -73 70 -389
61 -158 113 -295 117 -304 5 -13 0 -20 -18 -27 -29 -11 -57 -47 -57 -74 0 -10
10 -41 21 -68 l22 -50 -21 -42 c-18 -36 -19 -49 -11 -89 7 -32 20 -55 40 -72
28 -24 38 -59 20 -70 -14 -9 -21 -80 -11 -118 15 -53 44 -84 105 -113 55 -26
64 -40 45 -74 -11 -22 9 -104 36 -147 21 -33 35 -45 118 -96 62 -38 78 -38 80
1 2 42 22 21 51 -54 48 -123 118 -167 208 -131 23 10 188 74 367 143 366 141
390 152 419 189 38 48 29 94 -65 337 -47 122 -97 253 -110 291 -27 73 -28 116
-2 50 9 -21 29 -68 46 -104 72 -159 122 -278 132 -320 7 -25 19 -58 28 -75 8
-16 16 -48 17 -70 1 -22 5 -49 8 -60 10 -32 -27 -82 -80 -108 -26 -13 -124
-54 -218 -91 -93 -36 -192 -75 -220 -87 -27 -11 -81 -32 -118 -46 -49 -19 -67
-30 -65 -42 3 -17 127 -83 141 -74 8 5 45 -3 342 -78 277 -70 402 -107 455
-135 49 -25 110 -78 110 -97 0 -34 24 23 55 130 19 66 51 158 70 204 20 46 49
118 65 159 15 41 64 157 109 257 45 100 81 187 81 194 0 6 -31 45 -70 85 -38
41 -70 81 -70 89 0 9 -11 20 -25 25 -14 5 -30 21 -37 35 -6 14 -14 25 -18 25
-6 0 -34 24 -110 93 -21 21 -42 37 -45 37 -4 0 -19 12 -34 28 -15 15 -41 33
-57 40 -144 67 -380 211 -584 357 -101 73 -94 65 -125 147 -15 40 -42 111 -61
158 -18 47 -67 175 -109 285 -65 172 -81 205 -115 238 -33 31 -46 37 -82 36
-24 0 -59 -6 -78 -14z m192 -183 c41 -110 99 -264 209 -552 16 -41 29 -87 29
-102 0 -14 18 -59 39 -100 22 -40 63 -136 91 -213 51 -137 71 -190 184 -488
31 -81 56 -153 56 -160 0 -13 -21 -21 -420 -172 -140 -53 -301 -114 -358 -136
-57 -23 -106 -38 -109 -36 -3 3 -23 52 -46 109 -31 78 -42 121 -45 176 -3 66
-6 75 -36 105 -46 44 -56 68 -56 127 0 58 -11 83 -52 122 -24 22 -28 34 -28
80 0 45 -5 59 -35 97 -19 24 -35 48 -35 53 0 5 -9 28 -20 50 -11 23 -20 53
-20 67 0 14 -9 41 -20 59 -11 18 -59 135 -106 260 -47 125 -104 273 -125 330
-21 56 -39 108 -39 115 0 8 56 35 138 65 127 47 572 216 687 260 27 11 54 18
60 16 5 -3 31 -62 57 -132z"/>
<path d="M6971 46151 l-60 -89 -3 -86 c-2 -47 -1 -86 2 -86 3 0 31 37 62 83
l56 83 4 92 c2 51 2 92 1 92 -1 0 -29 -40 -62 -89z"/>
<path d="M5850 46036 c0 -3 15 -15 33 -27 23 -17 28 -18 18 -6 -14 18 -51 42
-51 33z"/>
<path d="M6768 45856 c-69 -101 -77 -117 -74 -152 2 -21 4 -46 5 -55 1 -9 8
-19 16 -23 10 -4 33 21 76 83 l61 88 3 87 c2 47 1 86 -3 86 -4 0 -42 -52 -84
-114z"/>
<path d="M7998 45923 c-8 -10 -39 -54 -69 -98 -58 -86 -68 -130 -51 -224 l7
-45 68 103 67 104 0 88 c0 49 -2 89 -3 89 -2 0 -11 -8 -19 -17z"/>
<path d="M7776 45593 l-39 -36 39 -34 c21 -18 42 -33 45 -33 5 0 2 131 -4 136
-1 1 -20 -14 -41 -33z"/>
<path d="M1112 45480 c0 -19 2 -27 5 -17 2 9 2 25 0 35 -3 9 -5 1 -5 -18z"/>
<path d="M7892 45480 c0 -19 2 -27 5 -17 2 9 2 25 0 35 -3 9 -5 1 -5 -18z"/>
<path d="M22626 44853 c-3 -3 -6 -44 -6 -90 0 -83 0 -83 46 -145 25 -35 49
-64 54 -66 11 -4 10 147 -1 176 -14 35 -85 132 -93 125z"/>
<path d="M22775 44561 c1 -48 6 -94 10 -102 12 -19 550 -754 620 -847 l55 -72
-350 -511 c-192 -281 -350 -514 -350 -518 0 -4 18 -19 40 -33 l39 -26 129 186
c71 103 213 311 317 462 103 151 207 303 231 337 38 56 41 64 26 72 -15 9 -15
12 5 33 l23 24 -63 87 c-106 150 -296 413 -457 632 -84 116 -178 245 -209 287
-31 43 -59 78 -62 78 -3 0 -5 -40 -4 -89z"/>
<path d="M7190 43387 l-104 -152 -2 -102 c-1 -57 -1 -103 0 -103 1 0 60 85
131 189 l130 190 3 -674 c1 -370 1 -980 0 -1355 l-3 -682 -53 69 c-29 37 -185
250 -348 473 -163 223 -325 443 -361 490 -35 47 -96 129 -134 182 l-70 97 97
143 c53 79 108 155 122 170 l24 26 -41 26 c-22 14 -44 26 -49 26 -5 0 -60 -75
-122 -167 l-113 -166 22 -19 23 -18 -23 -20 c-13 -10 -27 -19 -31 -20 -5 0 -8
-4 -8 -10 0 -5 80 -119 178 -254 97 -135 260 -361 362 -503 102 -141 211 -291
243 -332 32 -42 105 -143 163 -224 l105 -148 -45 -64 c-25 -35 -46 -67 -46
-72 0 -4 -36 -59 -79 -121 l-79 -113 1 -89 0 -89 27 37 c14 20 54 78 89 127
34 50 81 116 104 148 l42 59 3 -675 c1 -372 1 -982 0 -1356 l-3 -681 -190 261
c-104 144 -213 291 -242 328 -113 145 -528 717 -527 726 1 6 54 86 118 179
l116 169 -37 25 c-25 17 -41 22 -51 16 -18 -12 -265 -374 -255 -374 5 0 19 -9
33 -19 24 -19 24 -20 6 -39 -17 -20 -13 -27 228 -357 136 -185 251 -346 257
-357 6 -12 61 -89 122 -172 61 -83 182 -249 270 -370 l159 -218 -42 -62 c-23
-33 -84 -122 -134 -196 l-91 -135 -1 -97 c-1 -54 -1 -98 0 -98 2 0 61 84 132
187 l129 188 3 -672 c1 -369 1 -976 0 -1348 l-3 -676 -156 213 c-175 239 -438
596 -655 888 -79 107 -144 198 -144 203 0 9 92 143 170 249 l49 67 -33 19
c-67 40 -62 43 -174 -125 -93 -143 -101 -158 -87 -173 14 -16 13 -19 -10 -34
-15 -10 -24 -23 -22 -30 3 -7 92 -131 197 -276 105 -144 199 -275 208 -290 9
-16 154 -217 322 -446 168 -229 308 -422 312 -428 6 -11 -95 -178 -144 -239
-13 -15 -30 -40 -38 -55 -8 -15 -25 -43 -37 -62 -17 -29 -21 -50 -20 -117 0
-46 2 -83 3 -83 2 0 22 28 46 63 23 34 48 68 55 75 7 7 42 58 79 113 36 54 70
102 75 105 6 3 10 -200 11 -493 2 -644 2 -612 0 -1488 l-2 -750 -72 100 c-40
55 -112 152 -160 215 -72 96 -586 793 -709 964 l-37 50 124 182 124 181 -45
24 c-24 13 -46 21 -48 19 -19 -22 -247 -363 -247 -369 0 -5 16 -19 35 -31 42
-26 43 -32 10 -50 -14 -7 -25 -17 -25 -21 0 -4 152 -216 338 -471 185 -255
342 -473 348 -484 6 -10 91 -127 188 -259 97 -132 174 -245 172 -252 -3 -6
-62 -94 -132 -195 l-127 -183 -3 -97 c-1 -54 1 -98 4 -98 4 1 63 83 132 184
l125 183 3 -674 c1 -371 1 -976 0 -1344 l-3 -670 -76 103 c-42 57 -242 330
-444 608 -203 278 -383 522 -402 543 -35 39 -40 52 -23 62 6 4 43 55 82 113
39 59 89 130 110 159 l38 52 -28 19 c-70 50 -63 53 -145 -65 -41 -60 -93 -139
-116 -178 l-43 -70 29 -23 28 -23 -29 -24 -29 -23 130 -179 c71 -98 138 -191
149 -208 10 -16 182 -254 381 -527 199 -274 369 -509 378 -522 15 -23 12 -29
-117 -217 l-132 -194 -3 -99 c-2 -97 -1 -99 15 -75 9 14 23 32 30 40 7 8 59
81 115 163 l102 150 5 -852 5 -852 75 -50 75 -50 3 190 2 190 23 -5 c19 -4 35
14 117 136 52 77 96 144 98 149 2 4 -21 17 -50 28 l-52 19 -59 -86 c-74 -108
-77 -111 -75 -75 0 16 0 236 0 489 0 253 0 484 0 512 0 29 -5 59 -11 67 -10
12 -10 20 0 37 15 29 16 601 1 640 -7 17 -7 31 0 44 9 16 14 132 7 160 -1 6
-3 37 -4 70 -8 217 -8 273 0 295 13 40 10 86 -9 115 -16 24 -16 29 -2 50 9 14
15 45 15 77 0 29 -1 120 -2 202 -2 151 5 185 35 174 11 -5 15 -27 16 -92 1
-86 2 -87 48 -151 25 -36 47 -65 50 -65 2 0 2 18 0 40 -4 50 14 80 37 61 12
-9 16 -32 16 -95 l-1 -82 329 -450 c180 -247 363 -497 406 -556 l77 -106 -130
-189 -130 -188 0 -86 c0 -47 3 -88 6 -92 4 -3 75 93 158 215 l151 220 3 -1264
2 -1264 73 -39 c39 -22 78 -41 85 -43 9 -3 12 113 12 552 0 452 2 554 13 550
8 -3 38 33 80 93 l66 98 -7 89 -7 88 -70 -102 -70 -102 -6 363 c-8 451 -7 436
-33 445 l-21 7 21 4 c20 4 21 13 28 130 6 110 4 128 -11 145 -15 17 -15 21 -1
51 13 28 15 57 7 197 -4 91 -15 206 -23 255 -36 208 -30 547 11 748 15 73 15
81 0 107 -18 29 -15 53 11 82 10 12 12 28 7 60 -8 49 -14 337 -7 356 2 6 13
12 23 12 17 0 19 -8 19 -93 0 -101 1 -103 83 -202 l26 -30 -6 41 c-5 43 11 89
28 79 19 -12 8 8 -56 102 -36 52 -62 100 -58 107 4 6 35 52 70 103 l64 92 -3
97 -3 97 -87 -128 -87 -128 -5 374 c-2 206 -5 412 -6 459 0 47 2 127 6 178 5
81 4 96 -12 113 -15 17 -16 23 -5 41 19 31 23 580 4 625 -12 29 -11 37 3 64
15 31 15 69 0 184 -3 22 -7 104 -9 183 -3 110 -1 145 10 153 20 17 16 76 -9
109 l-22 30 23 31 c19 26 22 38 16 77 -11 76 -13 335 -3 355 5 9 16 17 26 17
10 1 46 43 90 109 l73 108 -3 96 -3 95 -85 -125 -85 -125 -7 349 c-9 496 -9
498 -3 609 6 87 5 102 -9 107 -19 8 -21 30 -3 57 10 17 9 22 -3 30 -13 8 -13
10 0 15 13 4 15 47 15 278 0 193 -4 280 -13 300 -10 24 -9 33 4 55 13 23 14
38 5 97 -21 148 -30 541 -13 620 4 22 7 118 6 214 -3 166 3 211 27 211 5 0 13
-9 17 -21 7 -17 19 -3 82 93 l75 113 -3 83 c-2 45 -7 82 -10 82 -4 -1 -43 -54
-87 -120 l-80 -119 -6 362 c-10 530 -10 534 -3 630 5 76 4 91 -11 108 -16 16
-16 23 -6 47 20 42 23 585 4 623 -12 25 -12 32 2 60 16 31 17 66 1 184 -3 22
-7 104 -9 183 -4 113 -2 146 9 157 21 20 17 72 -7 105 l-22 28 22 35 c24 40
27 94 6 123 -8 12 -12 24 -9 27 3 2 5 63 6 133 1 136 6 161 37 166 19 3 128
157 476 671 66 98 195 289 288 424 l167 247 0 90 c0 49 -2 87 -5 84 -3 -2 -74
-104 -157 -225 -84 -122 -193 -279 -242 -349 -123 -177 -258 -374 -412 -599
l-129 -189 -6 339 c-10 495 -10 512 -3 608 5 75 4 91 -11 107 -15 17 -16 24
-5 50 9 22 13 105 14 281 l1 251 -27 14 c-35 18 -36 28 -4 20 34 -8 41 8 21
50 -15 31 -15 37 -1 66 17 33 22 143 7 152 -8 6 -11 54 -16 331 -1 66 -7 156
-14 200 -15 103 -26 355 -16 355 4 0 14 -8 21 -17 15 -20 14 -23 19 57 3 58 4
60 29 60 20 0 78 78 385 527 l361 527 0 90 c0 50 -4 86 -9 81 -4 -6 -156 -226
-336 -490 -448 -656 -458 -670 -462 -659 -2 6 4 55 12 110 9 54 20 129 26 166
5 37 8 149 5 250 -7 285 -7 356 0 451 5 77 4 91 -12 108 -18 20 -18 22 -1 51
18 32 23 88 8 88 -6 0 -12 -4 -15 -9 -3 -5 -37 -28 -76 -51 l-70 -42 -2 -1301
-3 -1301 -230 314 c-126 173 -320 440 -432 593 l-203 278 -1 -43 c-4 -146 -8
-137 124 -318 121 -165 219 -299 510 -698 l155 -214 -76 -111 c-42 -62 -95
-139 -119 -172 l-43 -59 2 -101 2 -100 89 130 c49 71 119 175 155 229 l67 99
3 -727 c1 -400 1 -1051 0 -1445 l-3 -718 -154 211 c-85 116 -232 317 -326 446
-95 129 -254 347 -354 483 -99 137 -181 253 -181 257 0 9 191 291 216 321 12
13 12 18 -4 32 -25 23 -82 42 -91 31 -4 -5 -43 -60 -85 -121 -43 -62 -79 -113
-81 -113 -5 0 -7 700 -3 992 1 26 -4 54 -11 62 -10 11 -10 20 -1 36 15 28 17
603 2 640 -7 18 -6 33 5 53 7 15 12 31 9 36 -3 4 -8 86 -12 182 -3 96 -7 192
-8 214 -1 22 2 56 7 75 15 53 12 96 -7 125 -16 24 -16 29 -2 50 9 14 15 45 15
77 0 29 -1 118 -2 198 -2 153 3 180 31 180 12 0 56 56 130 164 l112 165 -28
20 c-64 45 -70 42 -152 -84 -41 -63 -78 -114 -82 -115 -10 0 -12 1059 -3 1069
3 2 -2 12 -10 21 -13 14 -13 22 -2 51 27 70 12 99 -95 188 -53 45 -100 81
-105 81 -4 -1 -55 -69 -113 -153z m1536 -1398 c3 -6 0 -15 -7 -20 -22 -14 -29
-11 -29 11 0 21 24 27 36 9z m-1168 -3187 c2 -91 3 -94 43 -150 60 -81 61 -82
56 -37 -4 45 7 75 28 75 19 0 24 -23 24 -107 -1 -40 3 -78 7 -85 5 -7 118
-164 253 -348 135 -184 312 -427 394 -540 83 -113 150 -209 150 -215 0 -5 -56
-93 -126 -194 l-125 -183 0 -94 c0 -52 2 -94 4 -94 3 0 219 311 287 415 l27
40 0 -1445 c0 -794 -4 -1440 -8 -1435 -9 10 -77 102 -512 700 -128 176 -259
356 -291 399 l-59 80 -1 -40 c-1 -38 -1 -133 0 -145 1 -4 143 -202 318 -440
174 -239 351 -482 394 -540 l77 -107 -119 -173 -119 -174 2 -99 c1 -74 4 -95
12 -83 6 8 76 110 155 226 79 116 145 211 147 211 2 0 4 -655 4 -1456 l0
-1456 -182 248 c-438 601 -690 944 -691 944 -1 0 -1 -43 0 -96 l3 -96 77 -107
c43 -58 225 -308 405 -555 290 -397 327 -451 316 -467 -7 -10 -66 -95 -130
-189 l-118 -171 2 -99 1 -99 156 228 156 227 3 -712 c1 -392 1 -1037 0 -1434
l-3 -721 -86 118 c-47 65 -155 213 -239 328 -85 116 -232 318 -329 450 -96
132 -216 297 -267 367 l-92 126 115 167 c88 129 112 170 101 177 -29 20 -68
38 -80 38 -7 0 -49 -54 -93 -120 -44 -65 -83 -119 -88 -120 -4 0 -7 248 -6
551 0 360 -3 555 -9 561 -7 7 -7 19 0 37 14 36 13 597 -1 634 -8 21 -8 34 0
49 11 20 11 57 4 248 -9 212 -9 266 -1 279 14 22 10 88 -6 113 -15 23 -10 59
9 71 5 3 6 34 3 69 -5 48 -6 293 -1 351 1 4 10 11 20 15 11 4 70 81 132 172
62 91 116 168 121 171 5 3 3 10 -4 16 -19 15 -75 43 -87 43 -6 0 -47 -54 -91
-120 -45 -66 -84 -120 -86 -120 -2 0 -4 239 -3 531 0 337 -3 535 -10 542 -6 6
-6 19 1 36 13 34 13 597 0 632 -7 16 -7 31 0 43 10 18 11 98 3 241 -10 173 -9
283 1 296 14 20 10 82 -9 109 -15 22 -14 43 6 68 6 7 9 36 7 65 -6 123 1 362
10 371 7 7 16 7 29 -1 16 -10 29 5 119 137 98 146 100 149 79 162 -28 17 -79
40 -82 36 -1 -2 -32 -48 -70 -103 -38 -55 -72 -104 -77 -109 -4 -6 -8 237 -7
539 0 347 -3 551 -10 558 -6 6 -6 19 1 36 13 34 13 607 0 642 -7 16 -7 31 0
43 10 17 10 72 3 216 -9 182 -9 299 1 311 14 20 10 84 -9 112 -14 22 -14 27 0
53 9 17 14 50 13 79 -6 144 -4 342 3 358 5 10 16 17 25 15 14 -3 17 -18 20
-96z"/>
<path d="M8146 36850 l-60 -85 -4 -97 c-2 -54 0 -98 5 -98 4 1 34 40 66 87
l58 86 -3 96 -3 96 -59 -85z"/>
<path d="M8463 36835 c0 -22 2 -30 4 -17 2 12 2 30 0 40 -3 9 -5 -1 -4 -23z"/>
<path d="M8462 36755 c0 -16 2 -22 5 -12 2 9 2 23 0 30 -3 6 -5 -1 -5 -18z"/>
<path d="M7942 36553 c-51 -76 -80 -128 -75 -136 4 -6 6 -21 4 -31 -1 -11 0
-43 4 -73 l6 -53 78 118 78 117 -2 87 c-1 49 -3 89 -6 91 -2 2 -41 -52 -87
-120z"/>
<path d="M8462 36635 c0 -16 2 -22 5 -12 2 9 2 23 0 30 -3 6 -5 -1 -5 -18z"/>
<path d="M7772 36279 c-41 -30 -53 -49 -30 -49 6 0 26 -11 44 -25 18 -14 35
-25 37 -25 3 0 3 24 0 53 -2 28 -5 58 -5 65 -2 15 3 17 -46 -19z"/>
<path d="M7893 36150 c0 -30 2 -43 4 -27 2 15 2 39 0 55 -2 15 -4 2 -4 -28z"/>
<path d="M8461 35874 c0 -11 3 -14 6 -6 3 7 2 16 -1 19 -3 4 -6 -2 -5 -13z"/>
<path d="M7558 35785 c-2 -2 -3 -45 -2 -95 l2 -90 46 -62 c49 -65 60 -64 53 7
-3 26 1 43 12 54 16 16 13 23 -45 104 -34 47 -64 84 -66 82z"/>
<path d="M8461 35614 c0 -11 3 -14 6 -6 3 7 2 16 -1 19 -3 4 -6 -2 -5 -13z"/>
<path d="M8462 35480 c0 -14 2 -19 5 -12 2 6 2 18 0 25 -3 6 -5 1 -5 -13z"/>
<path d="M8471 35154 c0 -11 3 -14 6 -6 3 7 2 16 -1 19 -3 4 -6 -2 -5 -13z"/>
<path d="M8471 35074 c0 -11 3 -14 6 -6 3 7 2 16 -1 19 -3 4 -6 -2 -5 -13z"/>
<path d="M8471 34964 c0 -11 3 -14 6 -6 3 7 2 16 -1 19 -3 4 -6 -2 -5 -13z"/>
<path d="M8491 34814 c0 -11 3 -14 6 -6 3 7 2 16 -1 19 -3 4 -6 -2 -5 -13z"/>
<path d="M8144 33798 l-59 -83 -2 -97 c-1 -54 2 -98 6 -98 4 0 33 39 64 86
l57 87 0 93 c0 52 -2 94 -3 94 -2 0 -30 -37 -63 -82z"/>
<path d="M8463 33820 c0 -25 2 -35 4 -22 2 12 2 32 0 45 -2 12 -4 2 -4 -23z"/>
<path d="M8462 33735 c0 -16 2 -22 5 -12 2 9 2 23 0 30 -3 6 -5 -1 -5 -18z"/>
<path d="M8462 33615 c0 -16 2 -22 5 -12 2 9 2 23 0 30 -3 6 -5 -1 -5 -18z"/>
<path d="M7952 33517 c-80 -118 -90 -151 -75 -247 l9 -55 71 106 c71 105 72
108 77 183 8 135 1 136 -82 13z"/>
<path d="M7773 33254 l-27 -36 34 -29 c19 -16 38 -29 41 -29 5 0 4 49 -3 118
-2 21 -16 13 -45 -24z"/>
<path d="M7892 33150 c0 -19 2 -27 5 -17 2 9 2 25 0 35 -3 9 -5 1 -5 -18z"/>
<path d="M8462 32860 c0 -14 2 -19 5 -12 2 6 2 18 0 25 -3 6 -5 1 -5 -13z"/>
<path d="M7559 32689 c0 -8 -1 -50 -2 -93 0 -78 0 -80 44 -142 24 -35 48 -63
52 -64 4 0 7 19 6 43 -2 62 -1 67 20 75 17 6 12 17 -50 101 -38 52 -69 88 -70
80z"/>
<path d="M8461 32604 c0 -11 3 -14 6 -6 3 7 2 16 -1 19 -3 4 -6 -2 -5 -13z"/>
<path d="M8462 32460 c0 -14 2 -19 5 -12 2 6 2 18 0 25 -3 6 -5 1 -5 -13z"/>
<path d="M8472 31960 c0 -19 2 -27 5 -17 2 9 2 25 0 35 -3 9 -5 1 -5 -18z"/>
<path d="M8491 31794 c0 -11 3 -14 6 -6 3 7 2 16 -1 19 -3 4 -6 -2 -5 -13z"/>
<path d="M8145 30653 l-60 -88 -1 -90 c-1 -49 1 -93 3 -98 3 -4 30 30 61 75
55 80 57 86 60 158 7 142 5 143 -63 43z"/>
<path d="M8463 30685 c0 -22 2 -30 4 -17 2 12 2 30 0 40 -3 9 -5 -1 -4 -23z"/>
<path d="M8462 30605 c0 -16 2 -22 5 -12 2 9 2 23 0 30 -3 6 -5 -1 -5 -18z"/>
<path d="M8462 30490 c0 -14 2 -19 5 -12 2 6 2 18 0 25 -3 6 -5 1 -5 -13z"/>
<path d="M7955 30372 c-38 -57 -74 -114 -78 -126 -9 -23 1 -166 11 -166 4 1
37 46 74 101 67 101 67 101 71 182 7 127 1 128 -78 9z"/>
<path d="M7798 30143 c-8 -10 -21 -29 -30 -43 -15 -25 -15 -26 18 -48 19 -12
35 -22 37 -22 4 0 -2 122 -6 127 -2 2 -10 -5 -19 -14z"/>
<path d="M7892 30015 c0 -16 2 -22 5 -12 2 9 2 23 0 30 -3 6 -5 -1 -5 -18z"/>
<path d="M7891 29964 c0 -11 3 -14 6 -6 3 7 2 16 -1 19 -3 4 -6 -2 -5 -13z"/>
<path d="M8461 29724 c0 -11 3 -14 6 -6 3 7 2 16 -1 19 -3 4 -6 -2 -5 -13z"/>
<path d="M8461 29464 c0 -11 3 -14 6 -6 3 7 2 16 -1 19 -3 4 -6 -2 -5 -13z"/>
<path d="M8462 29325 c0 -16 2 -22 5 -12 2 9 2 23 0 30 -3 6 -5 -1 -5 -18z"/>
<path d="M8471 29004 c0 -11 3 -14 6 -6 3 7 2 16 -1 19 -3 4 -6 -2 -5 -13z"/>
<path d="M8471 28804 c0 -11 3 -14 6 -6 3 7 2 16 -1 19 -3 4 -6 -2 -5 -13z"/>
<path d="M8492 28660 c0 -14 2 -19 5 -12 2 6 2 18 0 25 -3 6 -5 1 -5 -13z"/>
<path d="M22051 43298 l-62 -93 2 -70 c3 -113 8 -117 61 -38 69 104 74 119 72
206 0 42 -3 80 -6 82 -3 3 -33 -36 -67 -87z"/>
<path d="M6967 43059 l-57 -86 -2 -91 c-1 -51 1 -94 3 -97 3 -3 31 33 63 79
l57 84 -3 99 -3 98 -58 -86z"/>
<path d="M21892 43063 c-37 -55 -45 -63 -58 -52 -18 15 -11 23 -86 -101 -28
-47 -79 -125 -113 -175 -85 -124 -197 -315 -252 -431 -25 -53 -65 -129 -88
-169 -76 -129 -303 -568 -335 -650 -18 -44 -50 -130 -71 -192 -21 -61 -50
-137 -65 -170 -83 -186 -212 -564 -270 -788 -19 -77 -49 -184 -65 -238 -19
-60 -29 -114 -27 -140 l3 -42 49 -7 c83 -12 135 -84 136 -188 0 -65 -41 -223
-68 -260 -10 -14 -45 -39 -78 -57 -50 -28 -69 -32 -129 -33 -54 0 -77 5 -100
20 -16 11 -44 29 -60 40 -55 35 -69 74 -69 180 0 52 5 113 12 136 19 66 68
130 118 154 24 12 44 25 44 28 -2 20 -196 581 -249 717 -34 88 -76 196 -93
240 -73 188 -338 708 -595 1168 -121 215 -151 300 -160 449 l-6 96 -48 -36
c-93 -72 -152 -112 -164 -112 -7 0 -18 -7 -25 -15 -14 -17 -145 -105 -157
-105 -28 -2 -123 -119 -166 -205 -68 -139 -92 -267 -92 -500 0 -179 0 -180 34
-270 37 -100 105 -238 148 -302 16 -23 47 -56 70 -72 22 -16 51 -44 64 -63 42
-61 102 -128 299 -336 425 -450 500 -539 783 -937 28 -38 93 -126 146 -195 53
-68 150 -205 216 -305 81 -122 126 -181 140 -183 38 -5 237 232 414 493 179
264 204 303 233 360 43 85 108 179 293 425 89 118 195 262 237 320 150 211
447 668 513 790 83 152 106 187 207 313 97 122 113 154 148 291 16 61 36 138
44 171 20 74 22 283 4 307 -24 30 -153 116 -223 149 -49 22 -88 51 -130 94
-37 38 -75 67 -98 74 -21 7 -41 19 -43 26 -3 7 -26 27 -52 45 -26 18 -57 44
-68 57 -19 22 -20 28 -9 50 11 21 13 188 3 198 -2 2 -22 -26 -46 -62z"/>
<path d="M8463 43055 c0 -22 2 -30 4 -17 2 12 2 30 0 40 -3 9 -5 -1 -4 -23z"/>
<path d="M8115 42998 c-23 -34 -29 -57 -33 -115 -2 -39 -2 -84 2 -98 6 -25 10
-22 66 61 52 77 60 95 60 135 0 40 -3 48 -22 53 -39 10 -45 7 -73 -36z"/>
<path d="M8462 42975 c0 -16 2 -22 5 -12 2 9 2 23 0 30 -3 6 -5 -1 -5 -18z"/>
<path d="M19459 42940 c-14 -25 -47 -90 -73 -146 l-48 -101 4 -149 c6 -182 16
-215 126 -410 194 -342 480 -894 572 -1104 59 -133 190 -479 262 -693 39 -115
74 -205 78 -200 5 4 27 82 50 172 64 255 154 528 251 761 28 69 69 175 90 235
22 61 54 146 70 190 33 87 250 516 334 660 29 50 83 151 120 225 70 139 179
325 246 419 22 30 37 57 34 59 -8 9 -167 -150 -392 -393 -181 -195 -232 -257
-334 -408 -67 -97 -177 -250 -246 -339 -69 -90 -134 -180 -145 -201 -25 -50
-79 -75 -112 -53 -23 14 -26 24 -86 265 -45 181 -136 377 -228 492 -33 41
-119 128 -193 194 -178 160 -212 195 -244 250 -36 60 -95 218 -103 275 l-7 45
-26 -45z"/>
<path d="M22111 42884 c0 -11 3 -14 6 -6 3 7 2 16 -1 19 -3 4 -6 -2 -5 -13z"/>
<path d="M6840 42883 c0 -6 -32 -58 -72 -115 -59 -86 -71 -110 -71 -143 -1
-87 3 -135 11 -135 5 0 39 45 76 99 l67 100 4 88 c2 48 0 95 -5 103 -6 9 -10
10 -10 3z"/>
<path d="M8462 42855 c0 -16 2 -22 5 -12 2 9 2 23 0 30 -3 6 -5 -1 -5 -18z"/>
<path d="M7949 42756 c-70 -103 -76 -116 -77 -166 -1 -30 2 -72 6 -94 l7 -38
73 108 74 109 2 93 c1 51 0 95 -3 96 -3 2 -40 -47 -82 -108z"/>
<path d="M8462 42715 c0 -16 2 -22 5 -12 2 9 2 23 0 30 -3 6 -5 -1 -5 -18z"/>
<path d="M6609 42535 l-27 -43 29 -21 c15 -12 30 -21 33 -21 6 0 1 118 -5 124
-2 2 -16 -15 -30 -39z"/>
<path d="M1101 42514 c0 -11 3 -14 6 -6 3 7 2 16 -1 19 -3 4 -6 -2 -5 -13z"/>
<path d="M7779 42501 c-16 -16 -29 -35 -29 -43 0 -10 34 -37 71 -56 4 -2 5 21
2 50 -2 29 -5 59 -5 66 -2 17 -6 16 -39 -17z"/>
<path d="M6712 42435 c0 -16 2 -22 5 -12 2 9 2 23 0 30 -3 6 -5 -1 -5 -18z"/>
<path d="M7892 42390 c0 -19 2 -27 5 -17 2 9 2 25 0 35 -3 9 -5 1 -5 -18z"/>
<path d="M1112 42385 c0 -16 2 -22 5 -12 2 9 2 23 0 30 -3 6 -5 -1 -5 -18z"/>
<path d="M7891 42334 c0 -11 3 -14 6 -6 3 7 2 16 -1 19 -3 4 -6 -2 -5 -13z"/>
<path d="M8462 42095 c0 -16 2 -22 5 -12 2 9 2 23 0 30 -3 6 -5 -1 -5 -18z"/>
<path d="M7201 42094 c0 -11 3 -14 6 -6 3 7 2 16 -1 19 -3 4 -6 -2 -5 -13z"/>
<path d="M7834 42088 l-19 -23 23 19 c12 11 22 21 22 23 0 8 -8 2 -26 -19z"/>
<path d="M7559 41950 c-1 -8 -1 -51 -1 -96 l-1 -81 48 -61 c27 -34 49 -62 51
-62 1 0 2 24 2 54 -1 60 7 80 29 72 17 -7 15 -3 -55 94 -69 94 -72 97 -73 80z"/>
<path d="M8780 41857 l0 -83 46 -63 c26 -34 49 -60 52 -57 2 3 6 27 7 53 1 26
5 55 9 64 4 10 -12 41 -49 92 -31 42 -58 77 -61 77 -2 0 -4 -37 -4 -83z"/>
<path d="M8461 41834 c0 -11 3 -14 6 -6 3 7 2 16 -1 19 -3 4 -6 -2 -5 -13z"/>
<path d="M8931 41655 l2 -90 231 -318 c127 -174 266 -365 309 -425 42 -59 112
-154 155 -210 l77 -104 3 75 c2 49 -2 87 -11 109 -13 30 -62 98 -273 379 -38
52 -162 220 -274 374 -112 154 -207 284 -212 290 -5 6 -8 -27 -7 -80z"/>
<path d="M8462 41700 c0 -14 2 -19 5 -12 2 6 2 18 0 25 -3 6 -5 1 -5 -13z"/>
<path d="M8471 41374 c0 -11 3 -14 6 -6 3 7 2 16 -1 19 -3 4 -6 -2 -5 -13z"/>
<path d="M8471 41294 c0 -11 3 -14 6 -6 3 7 2 16 -1 19 -3 4 -6 -2 -5 -13z"/>
<path d="M7301 41074 c0 -11 3 -14 6 -6 3 7 2 16 -1 19 -3 4 -6 -2 -5 -13z"/>
<path d="M8491 41034 c0 -11 3 -14 6 -6 3 7 2 16 -1 19 -3 4 -6 -2 -5 -13z"/>
<path d="M6968 39979 c-60 -88 -63 -100 -59 -224 l1 -40 60 91 61 91 -3 83 -3
83 -57 -84z"/>
<path d="M8145 39974 l-60 -89 -1 -92 c-1 -51 1 -93 5 -93 4 0 31 35 61 78 52
74 54 80 58 152 7 143 5 145 -63 44z"/>
<path d="M8463 40000 c0 -25 2 -35 4 -22 2 12 2 32 0 45 -2 12 -4 2 -4 -23z"/>
<path d="M8462 39915 c0 -16 2 -22 5 -12 2 9 2 23 0 30 -3 6 -5 -1 -5 -18z"/>
<path d="M6774 39697 c-62 -94 -81 -129 -79 -152 1 -16 3 -49 4 -72 0 -24 4
-43 9 -43 4 0 38 45 75 100 l68 100 4 95 c2 52 3 95 2 95 -1 -1 -39 -56 -83
-123z"/>
<path d="M8462 39795 c0 -16 2 -22 5 -12 2 9 2 23 0 30 -3 6 -5 -1 -5 -18z"/>
<path d="M7950 39687 l-75 -110 2 -84 c1 -78 10 -115 20 -86 3 7 33 53 68 102
l64 90 4 83 c7 130 2 130 -83 5z"/>
<path d="M8462 39660 c0 -14 2 -19 5 -12 2 6 2 18 0 25 -3 6 -5 1 -5 -13z"/>
<path d="M28972 39490 c0 -14 2 -19 5 -12 2 6 2 18 0 25 -3 6 -5 1 -5 -13z"/>
<path d="M6617 39467 c-24 -32 -24 -35 -8 -49 35 -30 38 -28 37 27 0 30 -1 55
-2 55 -1 0 -13 -15 -27 -33z"/>
<path d="M7781 39443 c-31 -37 -38 -53 -23 -53 4 0 20 -11 36 -25 16 -14 30
-25 31 -25 4 0 -5 134 -9 137 -2 2 -18 -13 -35 -34z"/>
<path d="M8461 39414 c0 -11 3 -14 6 -6 3 7 2 16 -1 19 -3 4 -6 -2 -5 -13z"/>
<path d="M1112 39330 c0 -19 2 -27 5 -17 2 9 2 25 0 35 -3 9 -5 1 -5 -18z"/>
<path d="M7892 39330 c0 -19 2 -27 5 -17 2 9 2 25 0 35 -3 9 -5 1 -5 -18z"/>
<path d="M28972 39260 c0 -19 2 -27 5 -17 2 9 2 25 0 35 -3 9 -5 1 -5 -18z"/>
<path d="M8462 39040 c0 -14 2 -19 5 -12 2 6 2 18 0 25 -3 6 -5 1 -5 -13z"/>
<path d="M28620 39050 c-9 -6 -10 -10 -3 -10 6 0 15 5 18 10 8 12 4 12 -15 0z"/>
<path d="M28961 38914 c0 -11 3 -14 6 -6 3 7 2 16 -1 19 -3 4 -6 -2 -5 -13z"/>
<path d="M8780 38792 l0 -88 50 -69 c28 -38 50 -67 51 -65 0 3 2 25 3 50 5 69
5 70 26 70 16 0 7 17 -48 94 -37 52 -70 95 -74 95 -5 1 -8 -38 -8 -87z"/>
<path d="M28961 38814 c0 -11 3 -14 6 -6 3 7 2 16 -1 19 -3 4 -6 -2 -5 -13z"/>
<path d="M8461 38784 c0 -11 3 -14 6 -6 3 7 2 16 -1 19 -3 4 -6 -2 -5 -13z"/>
<path d="M26575 38604 c-26 -54 -69 -153 -97 -219 -53 -128 -192 -402 -240
-472 -15 -23 -28 -45 -28 -48 0 -4 15 -4 33 -1 33 7 216 21 454 34 72 4 135
10 138 14 4 3 -7 48 -23 100 -17 51 -39 127 -51 168 -11 42 -41 129 -65 195
-34 93 -46 140 -51 210 -4 50 -11 96 -15 104 -5 9 -23 -19 -55 -85z"/>
<path d="M8931 38588 l1 -93 202 -277 c182 -250 202 -274 207 -250 11 47 9
136 -4 159 -16 30 -398 553 -404 553 -2 0 -3 -42 -2 -92z"/>
<path d="M8462 38645 c0 -16 2 -22 5 -12 2 9 2 23 0 30 -3 6 -5 -1 -5 -18z"/>
<path d="M27752 38620 c0 -14 2 -19 5 -12 2 6 2 18 0 25 -3 6 -5 1 -5 -13z"/>
<path d="M27752 38555 c0 -16 2 -22 5 -12 2 9 2 23 0 30 -3 6 -5 -1 -5 -18z"/>
<path d="M14703 38548 c3 -9 2 -18 -4 -20 -5 -2 -127 -298 -270 -658 -143
-360 -514 -1296 -826 -2080 -311 -784 -569 -1432 -574 -1440 -6 -10 -8 -1 -9
28 0 40 -8 27 -116 -189 -146 -291 -167 -363 -162 -549 3 -118 5 -129 36 -195
18 -38 45 -85 59 -103 25 -33 33 -35 74 -18 12 5 261 -269 1022 -1126 2411
-2717 2450 -2761 2523 -2818 114 -88 234 -202 254 -242 11 -20 42 -60 70 -89
27 -29 50 -57 50 -63 0 -6 -14 -47 -31 -91 -18 -44 -82 -224 -144 -400 -62
-176 -142 -396 -178 -490 -68 -178 -267 -769 -317 -940 -16 -55 -45 -176 -65
-270 -20 -93 -40 -183 -45 -200 -36 -120 -53 -429 -59 -1095 l-6 -625 -75 75
c-94 94 -260 339 -260 384 0 22 -58 66 -87 66 l-26 0 5 83 c4 61 19 129 61
267 75 249 219 806 215 832 -3 20 -9 21 -173 22 -192 1 -399 -10 -464 -25 -52
-12 -266 -28 -408 -30 -57 -1 -103 -3 -103 -4 0 -2 7 -22 16 -46 8 -24 17 -69
19 -99 2 -30 11 -91 19 -135 9 -44 23 -136 32 -205 8 -69 26 -177 39 -240 29
-137 55 -332 55 -412 0 -49 -3 -58 -18 -58 -10 0 -30 -13 -45 -28 -24 -25 -27
-35 -27 -103 0 -91 -52 -288 -101 -381 -34 -65 -24 -393 16 -530 18 -60 28
-80 88 -158 75 -99 114 -136 206 -201 l84 -59 -371 0 -372 0 0 1292 0 1291 20
-18 c11 -10 22 -16 24 -14 1 2 22 33 46 68 32 48 39 65 29 72 -7 4 -65 8 -130
8 l-116 0 -6 -207 c-4 -114 -13 -247 -22 -297 -12 -75 -14 -268 -15 -1173 0
-1189 -4 -1112 60 -1166 l32 -26 575 0 576 0 86 -52 c47 -28 97 -59 111 -68
14 -10 57 -31 95 -47 39 -17 120 -52 180 -79 l110 -48 125 -2 c197 -2 857 14
1055 26 3051 183 5887 1208 8389 3033 l178 131 -6 100 c-12 173 -58 558 -95
786 -55 344 -140 726 -240 1075 -17 61 -58 207 -92 325 -34 118 -85 301 -115
405 -30 105 -60 210 -68 235 -8 25 -36 115 -61 200 -207 682 -325 997 -465
1240 -108 189 -110 193 -104 262 6 74 -13 119 -66 156 -43 29 -47 28 -43 -10
3 -30 2 -31 -9 -14 -7 11 -35 44 -61 73 -27 30 -64 79 -83 109 -25 39 -43 56
-63 60 -20 4 -33 17 -47 47 -22 47 -57 62 -104 45 -22 -7 -33 -21 -46 -56 -20
-56 -54 -93 -194 -216 -122 -107 -219 -180 -240 -181 -18 0 -68 -29 -126 -72
-23 -17 -55 -38 -71 -46 -33 -17 -206 -67 -231 -67 -10 0 -22 -4 -27 -8 -25
-22 -249 -64 -415 -77 -86 -8 -320 -16 -375 -13 -16 0 -39 0 -50 -1 -11 -1
-132 -4 -270 -6 -137 -3 -281 -10 -320 -16 -97 -16 -255 -17 -490 -2 -110 6
-258 16 -330 20 -136 8 -509 9 -680 1 -55 -3 -131 -1 -170 4 -108 12 -469 36
-478 31 -4 -2 -49 2 -100 11 -50 8 -164 19 -252 26 -154 10 -224 23 -385 70
-41 12 -129 37 -195 57 -66 19 -138 43 -160 53 -22 11 -83 35 -135 55 -52 19
-111 43 -130 52 -38 19 -69 71 -70 115 0 34 -42 68 -85 68 -46 0 -82 -32 -90
-79 -4 -26 -15 -45 -30 -55 -21 -14 -24 -25 -28 -98 -5 -96 -31 -210 -80 -353
-67 -194 -218 -588 -236 -614 -10 -14 -25 -45 -34 -69 -9 -23 -36 -62 -59 -85
-24 -24 -64 -68 -90 -99 -26 -30 -55 -58 -66 -60 -15 -4 -72 76 -313 441 -161
245 -499 757 -749 1136 -1036 1570 -1245 1889 -1242 1900 1 7 128 410 281 896
154 486 422 1336 596 1889 174 553 319 1008 322 1013 2 4 -17 16 -42 27 -101
43 -195 120 -297 244 -132 159 -284 293 -483 426 -55 37 -146 120 -290 265
-242 244 -341 337 -332 313z"/>
<path d="M27753 38440 c0 -30 2 -43 4 -27 2 15 2 39 0 55 -2 15 -4 2 -4 -28z"/>
<path d="M8471 38324 c0 -11 3 -14 6 -6 3 7 2 16 -1 19 -3 4 -6 -2 -5 -13z"/>
<path d="M8472 38135 c0 -16 2 -22 5 -12 2 9 2 23 0 30 -3 6 -5 -1 -5 -18z"/>
<path d="M29101 38104 c0 -11 3 -14 6 -6 3 7 2 16 -1 19 -3 4 -6 -2 -5 -13z"/>
<path d="M27991 38024 c0 -11 3 -14 6 -6 3 7 2 16 -1 19 -3 4 -6 -2 -5 -13z"/>
<path d="M8492 37970 c0 -14 2 -19 5 -12 2 6 2 18 0 25 -3 6 -5 1 -5 -13z"/>
<path d="M25657 37183 c-21 -30 -57 -68 -80 -85 -61 -45 -179 -99 -229 -105
-54 -6 -178 -54 -178 -69 0 -6 32 -91 71 -190 39 -98 81 -208 94 -244 55 -156
75 -193 75 -136 0 14 5 28 10 31 6 3 10 17 10 30 0 13 5 27 10 30 6 3 10 17
10 30 0 13 5 27 10 30 6 3 10 17 10 30 0 13 5 27 10 30 6 3 10 17 10 30 0 13
5 27 10 30 6 3 10 17 10 30 0 13 5 27 10 30 6 3 10 17 10 30 0 13 5 27 10 30
6 3 10 17 10 30 0 13 5 27 10 30 6 3 10 17 10 30 0 13 5 27 10 30 6 3 10 15
10 26 0 10 4 27 9 37 9 17 63 187 63 196 0 3 8 29 19 58 10 28 18 53 16 54 -1
1 -19 -23 -40 -53z"/>
<path d="M6968 36867 c-59 -88 -63 -107 -59 -250 l1 -38 59 88 59 88 3 92 c2
51 1 95 -2 98 -3 3 -31 -32 -61 -78z"/>
<path d="M6770 36578 l-75 -112 1 -83 c2 -77 11 -115 21 -87 2 6 33 53 69 104
l66 93 3 99 c1 54 -1 98 -4 98 -3 -1 -40 -51 -81 -112z"/>
<path d="M9068 36382 c-26 -37 -59 -84 -75 -106 -25 -34 -29 -49 -33 -137 -6
-114 -11 -116 90 30 l73 105 3 88 c2 48 0 88 -4 88 -4 0 -28 -31 -54 -68z"/>
<path d="M6601 36325 c-17 -20 -31 -39 -31 -43 0 -6 45 -37 72 -50 8 -4 4 115
-4 124 -3 2 -19 -11 -37 -31z"/>
<path d="M1101 36294 c0 -11 3 -14 6 -6 3 7 2 16 -1 19 -3 4 -6 -2 -5 -13z"/>
<path d="M6712 36215 c0 -16 2 -22 5 -12 2 9 2 23 0 30 -3 6 -5 -1 -5 -18z"/>
<path d="M1112 36170 c0 -19 2 -27 5 -17 2 9 2 25 0 35 -3 9 -5 1 -5 -18z"/>
<path d="M7201 35874 c0 -11 3 -14 6 -6 3 7 2 16 -1 19 -3 4 -6 -2 -5 -13z"/>
<path d="M8780 35686 l0 -88 47 -64 c26 -35 50 -59 53 -54 3 6 5 29 4 52 -1
23 2 51 6 62 5 15 -5 38 -43 91 -28 38 -54 74 -59 80 -4 5 -8 -31 -8 -79z"/>
<path d="M8931 35475 l1 -85 87 -119 86 -118 3 84 3 84 -87 119 c-47 66 -88
120 -90 120 -2 0 -4 -38 -3 -85z"/>
<path d="M28310 35473 c-8 -2 -22 -7 -30 -10 -8 -3 -21 -7 -28 -9 -30 -6 -23
-14 12 -14 22 0 35 4 31 10 -4 6 13 10 45 10 32 0 49 -4 45 -10 -4 -6 10 -10
37 -9 24 1 34 3 23 6 -11 2 -34 11 -52 19 -31 14 -56 16 -83 7z"/>
<path d="M28191 35416 c-12 -12 -21 -26 -21 -31 0 -4 8 1 18 12 9 11 26 22 37
25 17 3 18 5 4 10 -11 4 -25 -2 -38 -16z"/>
<path d="M28465 35430 c-3 -5 1 -10 9 -10 9 0 16 -4 16 -10 0 -5 7 -10 15 -10
8 0 15 -7 15 -15 0 -8 9 -24 20 -35 11 -11 20 -29 20 -40 0 -11 5 -20 10 -20
6 0 10 -37 10 -90 0 -53 -4 -90 -10 -90 -5 0 -10 -6 -10 -14 0 -15 -45 -65
-89 -100 -20 -16 -37 -18 -115 -14 -90 4 -147 21 -188 56 -26 22 -22 -1 5 -26
64 -60 175 -78 269 -42 64 24 138 90 138 123 0 7 5 18 12 25 8 8 12 43 11 95
0 65 -5 90 -22 120 -31 56 -104 116 -116 97z"/>
<path d="M28140 35355 c-7 -14 -17 -25 -22 -25 -4 0 -8 -9 -8 -19 0 -11 -4
-23 -10 -26 -13 -8 -13 -155 -1 -155 5 0 12 -10 15 -22 2 -13 3 -5 0 17 -13
114 -1 172 48 232 5 6 5 14 0 17 -5 3 -15 -6 -22 -19z"/>
<path d="M28131 35064 c0 -11 3 -14 6 -6 3 7 2 16 -1 19 -3 4 -6 -2 -5 -13z"/>
<path d="M7301 34854 c0 -11 3 -14 6 -6 3 7 2 16 -1 19 -3 4 -6 -2 -5 -13z"/>
<path d="M30353 34499 l-22 -51 51 -74 51 -75 -105 -157 c-160 -237 -187 -283
-203 -334 -7 -26 -20 -62 -28 -80 -20 -48 -67 -201 -63 -206 3 -2 43 54 90
125 174 261 229 341 322 473 87 123 94 136 78 147 -17 12 -17 14 4 29 12 8 22
19 22 24 0 4 -28 44 -62 87 -35 44 -74 94 -88 111 l-25 32 -22 -51z"/>
<path d="M6967 33802 l-58 -84 0 -80 c0 -44 2 -82 4 -84 2 -2 29 34 61 80 l57
84 -3 84 -3 85 -58 -85z"/>
<path d="M6774 33523 c-64 -95 -79 -125 -78 -153 1 -19 2 -54 3 -77 0 -24 4
-43 9 -43 4 0 38 47 75 104 l68 104 4 91 c2 50 3 91 1 91 -2 0 -38 -53 -82
-117z"/>
<path d="M26950 33534 c-63 -54 -79 -111 -89 -319 l-7 -130 -17 40 c-29 65
-54 85 -105 85 -109 0 -147 -69 -168 -302 l-6 -76 -35 20 c-63 37 -159 9 -191
-55 -7 -15 -19 -104 -28 -199 -17 -209 -35 -296 -63 -319 -12 -10 -40 -20 -64
-24 -92 -16 -157 -68 -157 -127 0 -82 47 -140 140 -172 57 -20 101 -20 220 0
52 9 139 19 192 23 87 7 105 12 185 52 l88 44 137 -3 c197 -4 285 15 350 76
15 14 30 24 32 21 11 -12 260 -356 307 -424 30 -44 124 -174 209 -290 84 -115
155 -217 157 -225 3 -10 -66 -119 -163 -261 -92 -134 -204 -298 -249 -364 -45
-66 -198 -288 -339 -493 -141 -206 -256 -376 -256 -379 0 -3 -10 -18 -21 -35
-23 -32 -23 -32 25 -60 19 -10 18 -12 -12 -37 l-31 -26 112 -155 c62 -85 158
-218 213 -295 193 -269 466 -640 473 -643 4 -1 24 15 44 36 l37 38 -291 400
c-161 219 -336 460 -390 534 l-97 134 112 166 c140 205 711 1039 780 1138 l51
74 5 -1127 5 -1127 82 93 83 94 0 275 c1 261 2 274 18 251 9 -14 58 -80 108
-148 l92 -124 36 45 37 45 -93 128 c-51 70 -104 142 -116 160 l-22 32 118 173
c65 95 206 301 314 458 107 157 275 403 373 545 97 143 183 266 190 274 11 12
14 -51 15 -365 0 -208 2 -379 4 -381 2 -2 37 46 79 105 l77 109 2 1022 3 1023
80 -109 c43 -59 194 -265 334 -458 139 -192 259 -356 266 -363 10 -11 17 -5
39 33 14 26 26 52 26 58 0 11 -31 55 -380 532 -144 198 -278 381 -296 406
l-34 46 65 94 c35 51 63 94 62 95 -4 4 -178 -32 -284 -58 l-43 -11 -1 -736
c-1 -405 0 -743 1 -751 3 -27 -30 15 -241 305 -112 154 -313 431 -447 615
-134 184 -254 345 -267 358 -20 21 -26 23 -61 14 -21 -6 -66 -16 -99 -22 -33
-6 -73 -15 -90 -19 l-30 -7 -5 -575 -5 -575 -158 215 c-87 119 -223 303 -301
409 l-143 194 25 66 c22 59 25 81 24 192 -1 69 -6 195 -12 280 -21 308 -36
372 -97 420 -37 29 -98 22 -129 -14 l-22 -25 -4 107 c-5 127 -29 192 -89 247
-35 31 -45 35 -93 35 -44 0 -60 -5 -86 -26z m1302 -1001 c36 -50 175 -240 677
-928 163 -223 290 -406 288 -415 -2 -8 -98 -152 -214 -320 -115 -168 -337
-492 -493 -720 -156 -228 -287 -419 -292 -424 -4 -6 -8 634 -8 1422 0 788 2
1432 4 1432 2 0 20 -21 38 -47z"/>
<path d="M6612 33284 l-23 -35 23 -19 c13 -11 26 -19 30 -20 3 0 6 25 5 55 -1
30 -4 55 -7 55 -3 0 -15 -16 -28 -36z"/>
<path d="M28962 32730 c0 -14 2 -19 5 -12 2 6 2 18 0 25 -3 6 -5 1 -5 -13z"/>
<path d="M28961 32684 c0 -11 3 -14 6 -6 3 7 2 16 -1 19 -3 4 -6 -2 -5 -13z"/>
<path d="M8780 32592 l0 -88 46 -63 c26 -34 49 -60 51 -57 2 2 6 30 7 61 2 32
9 60 15 65 9 5 -4 30 -46 88 -32 44 -61 81 -65 81 -5 1 -8 -39 -8 -87z"/>
<path d="M29102 31920 c0 -14 2 -19 5 -12 2 6 2 18 0 25 -3 6 -5 1 -5 -13z"/>
<path d="M7301 31834 c0 -11 3 -14 6 -6 3 7 2 16 -1 19 -3 4 -6 -2 -5 -13z"/>
<path d="M27992 31830 c0 -14 2 -19 5 -12 2 6 2 18 0 25 -3 6 -5 1 -5 -13z"/>
<path d="M6966 30666 l-58 -87 1 -91 c0 -50 2 -92 4 -94 2 -2 28 31 57 74 52
74 54 80 58 152 2 41 2 88 0 104 -3 26 -7 22 -62 -58z"/>
<path d="M6790 30408 c-35 -51 -70 -99 -79 -106 -13 -10 -16 -30 -14 -99 2
-48 6 -90 11 -95 4 -4 38 36 75 90 l67 98 5 102 c2 56 3 102 1 102 -1 0 -31
-42 -66 -92z"/>
<path d="M6626 30182 c2 -3 -5 -19 -16 -37 l-20 -32 30 -21 29 -22 -3 50 c-1
28 -7 54 -13 59 -5 5 -8 6 -7 3z"/>
<path d="M28972 30165 c0 -16 2 -22 5 -12 2 9 2 23 0 30 -3 6 -5 -1 -5 -18z"/>
<path d="M6712 30065 c0 -16 2 -22 5 -12 2 9 2 23 0 30 -3 6 -5 -1 -5 -18z"/>
<path d="M28972 29945 c0 -16 2 -22 5 -12 2 9 2 23 0 30 -3 6 -5 -1 -5 -18z"/>
<path d="M27752 29310 c0 -19 2 -27 5 -17 2 9 2 25 0 35 -3 9 -5 1 -5 -18z"/>
<path d="M27753 29130 c0 -30 2 -43 4 -27 2 15 2 39 0 55 -2 15 -4 2 -4 -28z"/>
<path d="M7301 28694 c0 -11 3 -14 6 -6 3 7 2 16 -1 19 -3 4 -6 -2 -5 -13z"/>
<path d="M6967 27552 l-58 -86 -2 -87 c-1 -48 1 -86 4 -84 3 2 31 41 62 87
l57 83 1 83 c1 46 0 85 -2 86 -2 2 -30 -35 -62 -82z"/>
<path d="M8145 27548 l-59 -83 -3 -97 c-2 -54 0 -98 4 -98 4 0 34 38 66 85
l58 84 -2 96 c-1 52 -2 95 -4 95 -1 0 -28 -37 -60 -82z"/>
<path d="M8463 27500 c0 -25 2 -35 4 -22 2 12 2 32 0 45 -2 12 -4 2 -4 -23z"/>
<path d="M8462 27415 c0 -16 2 -22 5 -12 2 9 2 23 0 30 -3 6 -5 -1 -5 -18z"/>
<path d="M6762 27253 c-45 -67 -78 -123 -73 -123 5 0 8 -23 6 -52 -5 -100 4
-98 84 19 l74 108 3 76 c1 42 -1 80 -4 86 -4 5 -44 -46 -90 -114z"/>
<path d="M7931 27234 c-85 -125 -91 -137 -75 -149 14 -9 17 -24 16 -61 -1 -27
2 -56 8 -64 6 -10 10 -11 10 -2 0 7 30 57 66 111 36 54 69 116 74 137 7 30 4
152 -4 161 -1 1 -44 -58 -95 -133z"/>
<path d="M8462 27295 c0 -16 2 -22 5 -12 2 9 2 23 0 30 -3 6 -5 -1 -5 -18z"/>
<path d="M8461 27164 c0 -11 3 -14 6 -6 3 7 2 16 -1 19 -3 4 -6 -2 -5 -13z"/>
<path d="M6590 26981 c-25 -22 -39 -40 -31 -41 8 0 29 -11 47 -25 l33 -25 5
32 c3 18 2 48 -2 66 l-7 34 -45 -41z"/>
<path d="M7771 26939 c-58 -38 -57 -37 -35 -45 10 -4 31 -16 47 -26 21 -15 28
-16 31 -6 2 7 6 20 9 29 3 9 2 30 -1 47 l-7 31 -44 -30z"/>
<path d="M6524 26825 c28 -25 43 -32 50 -25 12 12 -4 24 -59 47 -29 12 -28 11
9 -22z"/>
<path d="M7892 26830 c0 -19 2 -27 5 -17 2 9 2 25 0 35 -3 9 -5 1 -5 -18z"/>
<path d="M13097 26584 c-13 -14 -7 -24 34 -51 40 -27 42 -27 56 -8 38 51 37
55 -11 55 -24 0 -51 2 -58 5 -8 3 -17 2 -21 -1z"/>
<path d="M12096 26573 c-4 -4 -136 -8 -294 -9 -158 -1 -333 -7 -388 -13 -72
-8 -121 -9 -165 -2 -35 6 -67 7 -70 3 -4 -4 12 -86 36 -182 23 -96 55 -229 71
-295 15 -66 38 -151 52 -190 61 -179 94 -296 103 -370 10 -93 6 -115 -24 -115
-36 0 -66 -28 -77 -73 -14 -51 -181 -304 -247 -373 -26 -27 -94 -80 -150 -117
-56 -37 -148 -102 -205 -144 -56 -43 -134 -99 -171 -124 l-69 -47 109 -42
c367 -143 827 -301 1193 -410 298 -89 277 -86 319 -41 50 53 158 202 171 236
39 103 66 466 40 536 -7 19 -26 70 -42 114 -50 136 -68 214 -68 306 0 94 -10
113 -65 127 -24 7 -27 13 -31 62 -4 64 20 290 40 370 18 70 41 208 56 330 7
52 18 122 25 155 28 127 57 241 67 262 22 45 7 53 -105 53 -57 0 -107 -3 -111
-7z"/>
<path d="M8462 26540 c0 -14 2 -19 5 -12 2 6 2 18 0 25 -3 6 -5 1 -5 -13z"/>
<path d="M8461 26284 c0 -11 3 -14 6 -6 3 7 2 16 -1 19 -3 4 -6 -2 -5 -13z"/>
<path d="M8462 26135 c0 -16 2 -22 5 -12 2 9 2 23 0 30 -3 6 -5 -1 -5 -18z"/>
<path d="M8471 25734 c0 -11 3 -14 6 -6 3 7 2 16 -1 19 -3 4 -6 -2 -5 -13z"/>
<path d="M8471 25614 c0 -11 3 -14 6 -6 3 7 2 16 -1 19 -3 4 -6 -2 -5 -13z"/>
<path d="M14101 25464 c0 -11 3 -14 6 -6 3 7 2 16 -1 19 -3 4 -6 -2 -5 -13z"/>
</g>
</svg>
